<svg width="60" height="60" viewBox="0 0 60 60" fill="none" xmlns="http://www.w3.org/2000/svg">
<path d="M33.5156 10.9454C33.5156 9.33761 32.3367 7.72979 31.3441 6.65987C31.1742 6.47208 30.9668 6.32199 30.7353 6.21927C30.5037 6.11655 30.2533 6.06348 30 6.06348C29.7467 6.06348 29.4963 6.11655 29.2647 6.21927C29.0332 6.32199 28.8258 6.47208 28.6559 6.65987C27.6633 7.72979 26.4844 9.33761 26.4844 10.9466C26.4844 13.0548 28.0582 14.7657 30 14.7657C31.9418 14.7657 33.5156 13.0548 33.5156 10.9454Z" stroke="#373C22" stroke-width="3" stroke-linecap="round" stroke-linejoin="round"/>
<path d="M46.4062 10.9454C46.4062 9.33761 45.2273 7.72979 44.2348 6.65987C44.0648 6.47208 43.8574 6.32199 43.6259 6.21927C43.3944 6.11655 43.1439 6.06348 42.8906 6.06348C42.6373 6.06348 42.3869 6.11655 42.1554 6.21927C41.9239 6.32199 41.7164 6.47208 41.5465 6.65987C40.5539 7.72979 39.375 9.33761 39.375 10.9466C39.375 13.0548 40.9488 14.7657 42.8906 14.7657C44.8324 14.7657 46.4062 13.0548 46.4062 10.9454Z" stroke="#373C22" stroke-width="3" stroke-linecap="round" stroke-linejoin="round"/>
<path d="M20.625 10.9454C20.625 9.33761 19.4461 7.72979 18.4535 6.65987C18.2836 6.47208 18.0761 6.32199 17.8446 6.21927C17.6131 6.11655 17.3627 6.06348 17.1094 6.06348C16.8561 6.06348 16.6056 6.11655 16.3741 6.21927C16.1426 6.32199 15.9352 6.47208 15.7652 6.65987C14.7727 7.72979 13.5938 9.33761 13.5938 10.9466C13.5938 13.0548 15.1676 14.7657 17.1094 14.7657C19.0512 14.7657 20.625 13.0548 20.625 10.9454Z" stroke="#373C22" stroke-width="3" stroke-linecap="round" stroke-linejoin="round"/>
<path d="M54.1371 29.1188C53.8559 26.5758 51.8672 24.8004 49.3137 24.6258C45.8742 24.3902 39.8953 24.1406 30 24.1406C20.1047 24.1406 14.1258 24.3902 10.6863 24.6258C8.13281 24.8016 6.14414 26.5758 5.86289 29.1188C5.61211 31.3793 5.39062 34.6992 5.39062 39.375C5.39062 44.0508 5.61211 47.3707 5.86289 49.6313C6.14414 52.1742 8.13281 53.9484 10.6863 54.1242C14.1258 54.3598 20.1047 54.6094 30 54.6094C39.8953 54.6094 45.8742 54.3598 49.3137 54.1242C51.8684 53.9484 53.8559 52.1742 54.1371 49.6313C54.3879 47.3695 54.6094 44.0508 54.6094 39.375C54.6094 34.6992 54.3879 31.3793 54.1371 29.1188Z" stroke="#373C22" stroke-width="3" stroke-linecap="round" stroke-linejoin="round"/>
<path d="M45.8039 24.4313C45.9504 22.7508 46.1121 20.543 46.2773 17.6696C46.3594 16.2551 45.5426 14.9555 44.1328 14.8219C43.7199 14.7836 43.3053 14.7648 42.8906 14.7657C42.4755 14.7647 42.0606 14.7835 41.6473 14.8219C40.2363 14.9555 39.4207 16.2551 39.5027 17.6696C39.6609 20.4352 39.818 22.5856 39.9598 24.2403" stroke="#373C22" stroke-width="3" stroke-linecap="round" stroke-linejoin="round"/>
<path d="M32.9379 24.1477C33.0773 22.5059 33.2308 20.3848 33.3867 17.6696C33.4687 16.2551 32.6519 14.9555 31.2422 14.8219C30.8292 14.7836 30.4147 14.7648 30 14.7657C29.5849 14.7647 29.17 14.7835 28.7566 14.8219C27.3457 14.9555 26.5301 16.2551 26.6121 17.6696C26.768 20.3848 26.9215 22.5059 27.0598 24.1489" stroke="#373C22" stroke-width="3" stroke-linecap="round" stroke-linejoin="round"/>
<path d="M20.0391 24.2403C20.1797 22.5856 20.3367 20.4352 20.4961 17.6696C20.5781 16.2551 19.7613 14.9555 18.3515 14.8219C17.9386 14.7836 17.5241 14.7648 17.1094 14.7657C16.6943 14.7647 16.2793 14.7835 15.866 14.8219C14.4551 14.9555 13.6394 16.2551 13.7215 17.6696C13.8855 20.543 14.0496 22.7508 14.1937 24.4313" stroke="#373C22" stroke-width="3" stroke-linecap="round" stroke-linejoin="round"/>
<path d="M5.39062 39.9516C7.20362 41.2301 9.36787 41.9162 11.5863 41.9157C14.7891 41.9157 17.673 40.5071 19.691 38.2559C20.2605 37.6208 21.3281 37.6208 21.8977 38.2559C23.9156 40.5059 26.7996 41.9157 30.0023 41.9157C33.2039 41.9157 36.0891 40.5071 38.107 38.2559C38.6766 37.6208 39.7441 37.6208 40.3137 38.2559C42.3316 40.5059 45.2156 41.9157 48.4184 41.9157C50.6339 41.9163 52.7955 41.2319 54.607 39.9563" stroke="#373C22" stroke-width="3" stroke-linecap="round" stroke-linejoin="round"/>
</svg>
