<svg width="48" height="48" viewBox="0 0 48 48" fill="none" xmlns="http://www.w3.org/2000/svg">
<path d="M35 12.6C35 16.2451 28.2843 19.2 20 19.2C11.7157 19.2 5 16.2451 5 12.6M35 12.6C35 8.95493 28.2843 6 20 6C11.7157 6 5 8.95493 5 12.6M35 12.6V19.2M5 12.6V19.2M35 19.2C35 22.8452 28.2843 25.8 20 25.8C11.7157 25.8 5 22.8452 5 19.2M35 19.2V25.8M5 19.2V25.8M35 25.8C35 29.4452 28.2843 32.4 20 32.4C11.7157 32.4 5 29.4452 5 25.8M35 25.8V32.4C35 36.0452 28.2843 39 20 39C11.7157 39 5 36.0452 5 32.4V25.8" stroke="#373C22" stroke-width="3" stroke-linecap="round"/>
<circle cx="34.375" cy="35.375" r="9.875" fill="white" stroke="#373C22" stroke-width="3"/>
<path d="M35.6075 34.4523L35.6075 34.4523L35.606 34.454C35.3733 34.7264 35.071 34.8632 34.6849 34.8632H33.0232V31.865H34.6849C35.071 31.865 35.3733 32.0018 35.606 32.2742L35.606 32.2742L35.6075 32.2759C35.8503 32.5516 35.9768 32.91 35.9768 33.3641C35.9768 33.8183 35.8503 34.1766 35.6075 34.4523ZM31 29.85C30.9172 29.85 30.85 29.9172 30.85 30V40C30.85 40.0828 30.9172 40.15 31 40.15H32.8732C32.9561 40.15 33.0232 40.0828 33.0232 40V36.8782H34.7465C35.4021 36.8782 35.9911 36.7321 36.5092 36.4363L36.5092 36.4363L36.511 36.4353C37.0278 36.1311 37.429 35.7107 37.713 35.1768C38.0055 34.6422 38.15 34.0367 38.15 33.3641C38.15 32.6915 38.0055 32.086 37.713 31.5515C37.429 31.0175 37.0275 30.6012 36.5101 30.3056C35.9919 30.0007 35.4026 29.85 34.7465 29.85H31Z" fill="#373C22" stroke="#373C22" stroke-width="0.3" stroke-linejoin="round"/>
</svg>
