<svg width="220" height="33" viewBox="0 0 220 33" fill="none" xmlns="http://www.w3.org/2000/svg">
<path d="M23.0012 25.5315C22.1503 27.8093 20.7881 29.5895 18.9108 30.8797C17.0334 32.1698 14.8203 32.813 12.2752 32.813C8.69987 32.813 5.75794 31.8176 3.45324 29.8307C1.14854 27.8438 0 25.0874 0 21.5692C0 18.2921 1.19051 15.597 3.56771 13.4876C5.94873 11.3782 8.8029 10.3254 12.1378 10.3254C15.6216 10.3254 18.2888 11.3131 20.1394 13.2847C21.9901 15.2563 22.9135 17.6719 22.9135 20.524H8.97842C8.97842 21.6151 9.06237 22.733 9.22644 23.87C9.39052 25.007 9.70722 26.1096 10.1727 27.17C10.6383 28.2343 11.2984 29.0918 12.1569 29.7426C13.0116 30.3973 14.0724 30.6844 15.3621 30.6844C17.2166 30.6844 19.1741 29.7809 20.3073 28.7894C22.116 27.2045 23.0012 25.5315 23.0012 25.5315ZM13.7786 15.9645C14.6829 14.7548 14.6524 13.4416 14.2022 12.4884C13.7519 11.5313 12.8857 11.0528 11.7754 11.0528C10.4742 11.0528 9.75301 11.5926 9.37907 12.519C9.00513 13.4455 9.02802 15.0457 8.97842 16.6995C8.92882 18.3495 8.97842 19.6129 8.97842 19.6129C8.97842 19.6129 11.6304 18.8434 13.7786 15.9645Z" fill="#676767"/>
<path d="M121.958 25.5315C121.107 27.8093 119.745 29.5895 117.868 30.8797C115.99 32.1698 113.777 32.813 111.232 32.813C107.657 32.813 104.715 31.8176 102.41 29.8307C100.106 27.8438 98.957 25.0874 98.957 21.5692C98.957 18.2921 100.148 15.597 102.525 13.4876C104.906 11.3782 107.76 10.3254 111.095 10.3254C114.579 10.3254 117.246 11.3131 119.096 13.2847C120.947 15.2563 121.871 17.6719 121.871 20.524H107.939C107.939 21.6151 108.023 22.733 108.187 23.87C108.351 25.007 108.668 26.1096 109.134 27.17C109.599 28.2343 110.259 29.0918 111.118 29.7426C111.972 30.3973 113.033 30.6844 114.323 30.6844C116.177 30.6844 118.135 29.7809 119.268 28.7894C121.073 27.2045 121.958 25.5315 121.958 25.5315ZM112.736 15.9645C113.64 14.7548 113.609 13.4416 113.159 12.4884C112.709 11.5313 111.843 11.0528 110.732 11.0528C109.431 11.0528 108.71 11.5926 108.336 12.519C107.962 13.4455 107.985 15.0457 107.935 16.6995C107.886 18.3495 107.935 19.6129 107.935 19.6129C107.935 19.6129 110.587 18.8434 112.736 15.9645Z" fill="#676767"/>
<path d="M195.74 25.5315C194.889 27.8093 193.526 29.5895 191.649 30.8797C189.772 32.1698 187.559 32.813 185.014 32.813C181.438 32.813 178.496 31.8176 176.192 29.8307C173.887 27.8438 172.738 25.0874 172.738 21.5692C172.738 18.2921 173.929 15.597 176.306 13.4876C178.687 11.3782 181.541 10.3254 184.876 10.3254C188.36 10.3254 191.027 11.3131 192.878 13.2847C194.728 15.2563 195.652 17.6719 195.652 20.524H181.721C181.721 21.6151 181.804 22.733 181.969 23.87C182.133 25.007 182.449 26.1096 182.915 27.17C183.38 28.2343 184.04 29.0918 184.899 29.7426C185.754 30.3973 186.815 30.6844 188.104 30.6844C189.959 30.6844 191.916 29.7809 193.049 28.7894C194.854 27.2045 195.74 25.5315 195.74 25.5315ZM186.517 15.9645C187.421 14.7548 187.391 13.4416 186.94 12.4884C186.49 11.5313 185.624 11.0528 184.514 11.0528C183.212 11.0528 182.491 11.5926 182.117 12.519C181.743 13.4455 181.766 15.0457 181.717 16.6995C181.667 18.3495 181.717 19.6129 181.717 19.6129C181.717 19.6129 184.369 18.8434 186.517 15.9645Z" fill="#676767"/>
<path d="M38.6725 11.3475C37.9208 10.9571 36.757 10.8192 35.7344 11.405C34.4103 12.163 34.1279 13.5871 34.0974 14.6705C34.0669 15.8152 34.0593 19.9192 34.0593 20.9796C34.0593 23.7398 34.4179 26.2742 35.5855 28.196C36.5891 29.8422 38.1955 30.9486 40.5346 30.9486C42.202 30.9486 44.1023 30.1906 45.4149 29.2335C46.8992 28.1462 48.353 26.0789 48.353 26.0789C46.323 30.5696 42.6866 32.8168 37.4438 32.8168C33.9868 32.8168 31.0486 31.7908 28.6257 29.7426C26.2027 27.6945 24.9893 24.984 24.9893 21.6151C24.9893 18.2156 26.1798 15.486 28.557 13.4225C30.938 11.359 33.899 10.3254 37.4438 10.3254C38.7755 10.3254 40.0042 10.4709 41.126 10.758C42.2478 11.0451 43.301 11.4394 44.2854 11.9409C45.2699 12.4424 46.2085 13.1545 47.1052 14.081C47.9981 15.0074 48.4484 16.6766 48.4484 17.9208C48.4484 19.0425 48.4484 21.3778 48.4484 21.3778C48.4484 21.4773 44.7128 21.4237 44.3617 21.3778C43.0682 21.2055 41.7136 20.7078 40.8055 19.7163C40.3552 19.2224 40.0194 18.6328 39.7981 18.0012C39.7256 17.7983 39.6684 17.5877 39.6302 17.3772C39.4776 16.5694 39.4547 15.731 39.6379 15.0802C39.7294 14.7586 39.9546 13.9431 39.9546 13.4302C39.9546 12.5956 39.3822 11.7151 38.6725 11.3475Z" fill="#676767"/>
<path d="M74.6664 21.5692C74.6664 24.785 73.4491 27.4648 71.0147 29.6048C68.5803 31.7449 65.7146 32.813 62.4178 32.813C58.9379 32.813 56.0265 31.7449 53.6836 29.6048C51.3408 27.4648 50.1655 24.7888 50.1655 21.5692C50.1655 18.3534 51.3522 15.6735 53.7256 13.5335C56.099 11.3935 58.9951 10.3254 62.414 10.3254C65.7719 10.3254 68.6528 11.3897 71.0567 13.5105C73.4644 15.6391 74.6664 18.3227 74.6664 21.5692ZM65.4552 16.6995C65.4552 15.061 65.6765 13.7862 65.1766 12.7219C64.6768 11.6615 63.429 11.0528 62.3682 11.0528C61.399 11.0528 60.1933 11.627 59.6782 12.7334C59.163 13.8398 59.3729 15.1491 59.3729 16.6995C59.3729 17.2776 59.3729 26.2282 59.3729 26.4426C59.3729 28.0811 59.247 29.4172 59.743 30.4777C60.2429 31.542 61.3838 32.0894 62.4102 32.0894C63.4099 32.0894 64.5928 31.542 65.1041 30.4509C65.6193 29.3598 65.4475 28.0237 65.4475 26.4426C65.4552 25.8339 65.4552 16.9446 65.4552 16.6995Z" fill="#676767"/>
<path d="M148.252 32.3605C148.252 32.3605 149.737 32.0389 150.66 30.6646C150.874 30.3506 151.301 29.6232 151.335 28.7619L151.381 26.6678C151.381 26.6678 151.381 17.476 151.381 15.7877C151.381 13.617 151.015 12.9203 150.488 12.2235C149.595 11.0444 148.249 10.7802 148.249 10.7802H160.047V14.6047C160.253 14.0573 160.577 13.2572 161.42 12.2809C162.416 11.1286 163.649 10.5084 166.129 10.5084C167.583 10.5084 169.334 11.0176 170.345 12.0321C171.357 13.0504 171.864 14.2564 171.864 15.6499C171.864 17.0472 171.387 18.2072 170.433 19.1336C169.479 20.0601 167.789 20.5233 166.396 20.5233C165.248 20.5233 163.187 20.5233 163.187 20.5233C163.187 20.5233 163.187 19.348 163.187 18.5977C163.187 17.8473 163.218 16.1284 163.305 15.4393C163.485 14.0152 164.652 13.4065 164.511 12.8207C164.378 12.2618 163.576 12.1661 163.424 12.1661C162.641 12.1661 161.577 12.8437 161.001 13.7855C160.425 14.7272 160.135 15.6078 160.135 16.427V26.9434L160.18 28.6087C160.18 29.4586 160.699 30.4846 161.192 31.0359C162.241 32.2112 163.401 32.3605 163.401 32.3605H148.252Z" fill="#676767"/>
<path d="M211.285 18.598C211.285 19.3522 211.285 20.5237 211.285 20.5237C211.285 20.5237 213.345 20.5237 214.494 20.5237C215.886 20.5237 217.615 20.0604 218.569 19.134C219.523 18.2075 220 17.0475 220 15.6502C220 14.2529 219.492 13.0469 218.481 12.0324C217.466 11.0141 215.677 10.5088 214.227 10.5088C213.227 10.5088 211.674 10.7308 210.453 11.3318C209.178 11.9559 208.263 12.9589 208.263 12.9589V0C208.263 0 206.923 3.7977 202.661 7.66814C198.853 11.1251 193.583 12.511 193.583 12.511H199.506V26.5762C199.506 28.5478 200.311 30.083 201.925 31.1741C203.539 32.2651 205.393 32.8126 207.492 32.8126C210.77 32.8126 212.906 32.1694 213.898 30.8793C214.891 29.5891 215.387 28.0961 215.387 26.3963C215.387 26.3963 215.089 28.2339 214.41 29.3977C213.841 30.3701 212.544 31.1779 211.372 31.1779C210.502 31.1779 209.781 30.8448 209.209 30.1749C208.637 29.5087 208.354 28.521 208.354 27.2156L208.263 24.8956C208.263 24.8956 208.263 17.729 208.263 16.1785C208.263 14.8156 209.407 13.1082 210.129 12.6718C210.609 12.3808 211.048 12.1626 211.723 12.197C212.197 12.2238 212.616 12.4267 212.666 12.9168C212.716 13.4068 211.647 13.6863 211.403 15.8799C211.323 16.569 211.285 17.8438 211.285 18.598Z" fill="#676767"/>
<path d="M94.5694 14.2256C92.9248 11.6262 89.8417 10.3245 86.8464 10.3245C84.3967 10.3245 82.3247 10.9371 80.6305 12.1698C78.9363 13.3987 78.0893 15.1367 78.0893 17.384C78.0893 18.4176 78.3068 19.3249 78.7456 20.1136C79.1844 20.9022 79.8025 21.6104 80.6076 22.2306C81.4089 22.8546 82.4087 23.4901 83.603 24.1409C84.7973 24.7956 85.8505 25.3852 86.7548 25.9173C87.6629 26.4494 88.3269 26.9433 88.7504 27.395C89.174 27.8506 89.5822 28.3942 89.5937 29.4815C89.6013 30.4462 89.132 31.0243 88.6512 31.3382C88.0788 31.7095 87.4721 31.8014 86.7166 31.8014C85.3849 31.8014 83.9884 31.5105 82.8398 31.0817C81.6608 30.6414 80.684 30.0021 79.8216 29.0757C78.1236 27.2572 77.6733 24.8377 77.6733 24.8377C77.6733 24.8377 77.8374 26.2657 78.0091 26.9586C78.1999 27.7243 78.467 28.3598 78.8944 29.0221C80.7679 31.9239 84.0914 32.8198 87.3424 32.8198C89.8532 32.8198 91.9938 32.2264 93.7643 31.0434C95.5348 29.8605 96.42 28.0994 96.42 25.7642C96.42 24.4893 96.0881 23.36 95.4203 22.3723C94.7564 21.3846 93.9245 20.5576 92.9248 19.8915C91.9251 19.2254 90.7995 18.5478 89.5441 17.8663C88.2887 17.1849 87.2966 16.6221 86.5716 16.1819C85.8466 15.7416 85.2934 15.3243 84.9156 14.93C84.5378 14.5357 84.3471 13.9882 84.3471 13.2915C84.3471 12.6866 84.6103 12.1774 85.1407 11.7678C85.6711 11.3582 86.358 11.1514 87.205 11.1514C87.2699 11.1514 87.3348 11.1514 87.3996 11.1553C88.9832 11.205 90.7804 11.7448 92.1083 12.656C93.3522 13.5097 94.0467 14.0457 94.9891 15.8105C95.3364 16.4613 95.6683 17.2653 95.6683 17.2653C95.4966 15.9177 95.1532 15.1482 94.5694 14.2256Z" fill="#676767"/>
<path d="M137.633 11.3475C136.882 10.9571 135.718 10.8192 134.695 11.405C133.371 12.163 133.089 13.5871 133.058 14.6705C133.028 15.8152 133.02 19.9192 133.02 20.9796C133.02 23.7398 133.379 26.2742 134.546 28.196C135.55 29.8422 137.156 30.9486 139.495 30.9486C141.163 30.9486 143.063 30.1906 144.376 29.2335C145.86 28.1462 147.314 26.0789 147.314 26.0789C145.284 30.5696 141.648 32.8168 136.405 32.8168C132.948 32.8168 130.01 31.7908 127.587 29.7426C125.164 27.6945 123.95 24.984 123.95 21.6151C123.95 18.2156 125.141 15.486 127.518 13.4225C129.899 11.359 132.86 10.3254 136.405 10.3254C137.736 10.3254 138.965 10.4709 140.087 10.758C141.209 11.0451 142.262 11.4394 143.246 11.9409C144.231 12.4424 145.169 13.1545 146.066 14.081C146.959 15.0074 147.409 16.6766 147.409 17.9208C147.409 19.0425 147.409 21.3778 147.409 21.3778C147.409 21.4773 143.674 21.4237 143.323 21.3778C142.029 21.2055 140.675 20.7078 139.766 19.7163C139.316 19.2224 138.98 18.6328 138.759 18.0012C138.687 17.7983 138.629 17.5877 138.591 17.3772C138.439 16.5694 138.416 15.731 138.599 15.0802C138.69 14.7586 138.916 13.9431 138.916 13.4302C138.916 12.5956 138.343 11.7151 137.633 11.3475Z" fill="#676767"/>
</svg>
