<svg width="48" height="48" viewBox="0 0 48 48" fill="none" xmlns="http://www.w3.org/2000/svg">
<path fill-rule="evenodd" clip-rule="evenodd" d="M5 18C5 17.1716 5.67157 16.5 6.5 16.5H42.5C43.3284 16.5 44 17.1716 44 18V27C44 27.8284 43.3284 28.5 42.5 28.5H6.5C5.67157 28.5 5 27.8284 5 27V18ZM8 19.5V25.5H41V19.5H8Z" fill="#373C22"/>
<path fill-rule="evenodd" clip-rule="evenodd" d="M8 27C8 26.1716 8.67157 25.5 9.5 25.5H39.5C40.3284 25.5 41 26.1716 41 27V42C41 42.8284 40.3284 43.5 39.5 43.5H9.5C8.67157 43.5 8 42.8284 8 42V27ZM11 28.5V40.5H38V28.5H11Z" fill="#373C22"/>
<path fill-rule="evenodd" clip-rule="evenodd" d="M13.5687 6.712C15.6445 5.02801 18.8744 4.29002 21.6477 6.28407C23.7389 7.78771 24.7367 10.1165 25.1855 12.2129C25.6368 14.3212 25.5814 16.4045 25.3849 17.723C25.2804 18.4244 24.6989 18.9568 23.991 18.9993C22.4217 19.0933 19.9318 18.8714 17.5974 18.2071C15.3558 17.5692 12.761 16.3848 11.6192 14.1955C10.1339 11.3476 11.5336 8.36294 13.5687 6.712ZM15.4587 9.04179C14.1039 10.1408 13.6783 11.6561 14.2792 12.8082C14.8063 13.8189 16.2968 14.7179 18.4186 15.3217C19.8508 15.7292 21.3441 15.9379 22.5251 15.9998C22.5528 15.0751 22.4907 13.9562 22.252 12.8409C21.8837 11.1207 21.143 9.61617 19.8964 8.71981C18.4973 7.71386 16.7727 7.97583 15.4587 9.04179Z" fill="#373C22"/>
<path fill-rule="evenodd" clip-rule="evenodd" d="M34.9636 6.62648C32.8875 4.94302 29.6576 4.20537 26.8843 6.19869C24.7928 7.70191 23.7948 10.0302 23.3459 12.1262C22.8945 14.234 22.95 16.3168 23.1465 17.6351C23.251 18.3365 23.8325 18.8688 24.5404 18.9112C26.1098 19.0052 28.5999 18.7834 30.9345 18.1193C33.1762 17.4816 35.7713 16.2976 36.9133 14.1088C38.3991 11.2612 36.9989 8.27689 34.9636 6.62648ZM33.074 8.95665C34.429 10.0554 34.8543 11.5698 34.2536 12.7211C33.7265 13.7314 32.2358 14.6301 30.1137 15.2338C28.6811 15.6413 27.1874 15.8499 26.0063 15.9118C25.9786 14.9874 26.0407 13.8692 26.2794 12.7544C26.6477 11.0348 27.3884 9.53085 28.6351 8.63475C30.0346 7.62891 31.7598 7.89094 33.074 8.95665Z" fill="#373C22"/>
<path fill-rule="evenodd" clip-rule="evenodd" d="M23 42L23 17L26 17L26 42L23 42Z" fill="#373C22"/>
</svg>
