<svg width="120" height="120" viewBox="0 0 120 120" fill="none" xmlns="http://www.w3.org/2000/svg">
<path d="M0 60C0 26.8629 26.8629 0 60 0H120V60C120 93.1371 93.1371 120 60 120H0V60Z" fill="#E6B508"/>
<path d="M53.6205 59.05C53.6205 64.3167 54.1372 68.7 55.1705 72.2C56.2038 75.6667 58.0038 77.4 60.5705 77.4C61.8372 77.4 62.8038 77.15 63.4705 76.65C64.1372 76.15 64.5538 75.6 64.7205 75C64.8872 74.3667 64.9872 73.6333 65.0205 72.8C65.0538 71.9667 65.0705 70.9333 65.0705 69.7V67.75C65.0705 66.3167 65.0205 65.35 64.9205 64.85C64.8205 63.75 64.5872 63 64.2205 62.6C63.8872 62.2 63.3538 61.95 62.6205 61.85C61.8872 61.75 61.2205 61.7 60.6205 61.7C60.0205 61.6667 59.4705 61.6333 58.9705 61.6V60.8H82.3705V61.6L80.0705 61.75C79.0372 61.85 78.3372 62.1 77.9705 62.5C77.6372 62.8667 77.4205 63.6167 77.3205 64.75L77.2205 67.1V73.65L77.3205 78.15H76.5705C76.1372 77.1833 75.3705 76.3 74.2705 75.5C73.2038 74.7 72.0205 74.3 70.7205 74.3C69.5538 74.3 67.8872 75.0167 65.7205 76.45C63.5538 77.8833 60.6872 78.6 57.1205 78.6C52.1872 78.6 48.0372 76.8167 44.6705 73.25C41.3038 69.6833 39.6205 65.2 39.6205 59.8C39.6205 54.1333 41.4705 49.5833 45.1705 46.15C48.8705 42.7167 53.5872 41 59.3205 41C62.4538 41 65.4205 41.7 68.2205 43.1C71.0205 44.5 72.5872 45.2333 72.9205 45.3C73.8872 45.3 74.5372 44.95 74.8705 44.25C75.2038 43.5167 75.5205 42.4833 75.8205 41.15H76.8205V57.3H75.9705C74.9705 53.1667 73.3038 49.6667 70.9705 46.8C68.6705 43.9333 65.7205 42.5 62.1205 42.5C59.2538 42.5 57.1205 44.1667 55.7205 47.5C54.3205 50.8 53.6205 54.65 53.6205 59.05Z" fill="white"/>
</svg>
