<svg width="120" height="120" viewBox="0 0 120 120" fill="none" xmlns="http://www.w3.org/2000/svg">
<path d="M0 60C0 26.8629 26.8629 0 60 0H120V60C120 93.1371 93.1371 120 60 120H0V60Z" fill="white"/>
<path d="M59.5113 50.95L57.4613 45.65C56.9947 44.6833 56.5947 43.9667 56.2613 43.5C55.9613 43.0333 55.2947 42.7167 54.2613 42.55L52.7113 42.35V41.55H74.7113V42.35H74.0113C73.778 42.35 73.3447 42.4167 72.7113 42.55C72.078 42.65 71.5447 42.7833 71.1113 42.95C70.678 43.1167 70.4613 43.6167 70.4613 44.45C70.4613 45.2167 70.678 46.2833 71.1113 47.65C71.578 49.0167 72.1113 50.55 72.7113 52.25C73.3113 53.9167 74.0947 56.0833 75.0613 58.75C76.028 61.4167 76.728 63.35 77.1613 64.55C77.5947 63.4167 78.1113 62.05 78.7113 60.45C79.3447 58.85 80.1947 56.6 81.2613 53.7C82.3613 50.7667 83.078 48.7667 83.4113 47.7C83.7447 46.6 83.9113 45.65 83.9113 44.85C83.9113 44.0833 83.7113 43.5333 83.3113 43.2C82.9113 42.8667 82.428 42.6667 81.8613 42.6C81.2947 42.5 80.7613 42.45 80.2613 42.45C79.7613 42.4167 79.2947 42.3833 78.8613 42.35V41.55H91.7113V42.35L89.5113 42.6C88.4447 42.7667 87.6113 43.0667 87.0113 43.5C86.4113 43.9333 85.878 44.7 85.4113 45.8L83.9113 49.65L73.2113 78.2H69.2113L60.1113 52.4L50.5613 78.2H46.5613L36.3613 49.55L34.8113 45.65C34.3113 44.5833 33.8447 43.8333 33.4113 43.4C33.0113 42.9333 32.3947 42.65 31.5613 42.55L29.8113 42.35V41.55H51.4113V42.35L49.8113 42.5C49.0447 42.6 48.4947 42.7667 48.1613 43C47.8613 43.2 47.7113 43.6 47.7113 44.2C47.7113 44.9333 47.978 46.1167 48.5113 47.75C49.078 49.35 49.778 51.3 50.6113 53.6C51.4447 55.9 52.1947 57.9333 52.8613 59.7C53.528 61.4667 54.078 62.9333 54.5113 64.1L59.5113 50.95Z" fill="#898989"/>
</svg>
