<svg width="120" height="120" viewBox="0 0 120 120" fill="none" xmlns="http://www.w3.org/2000/svg">
<path d="M0 60C0 26.8629 26.8629 0 60 0H120V60C120 93.1371 93.1371 120 60 120H0V60Z" fill="#189CC6"/>
<path d="M62.3785 58.2C63.7785 57.9333 64.7119 57.1167 65.1785 55.75C65.6452 54.3833 65.8785 52.65 65.8785 50.55C65.8785 48.85 65.5619 47.2167 64.9285 45.65C64.3285 44.05 63.5619 43.1333 62.6285 42.9C61.7285 42.6667 60.8785 42.5333 60.0785 42.5C59.3118 42.4667 58.6285 42.4333 58.0285 42.4V58.55C58.6619 58.55 59.2952 58.55 59.9285 58.55C60.5952 58.5167 61.4119 58.4 62.3785 58.2ZM64.1785 78.05L39.7285 78V77.2H41.2785C41.9785 77.1 42.6618 77.0167 43.3285 76.95C43.9952 76.85 44.5118 76.6 44.8785 76.2C45.2785 75.7667 45.5285 75.0167 45.6285 73.95L45.7285 71.65V47.95L45.6285 45.65C45.5285 44.5833 45.2785 43.8333 44.8785 43.4C44.4785 42.9667 43.9118 42.7 43.1785 42.6C42.4785 42.5 41.8285 42.45 41.2285 42.45C40.6618 42.4167 40.1452 42.3833 39.6785 42.35V41.55L62.7785 41.5C65.9119 41.5 68.3619 41.6167 70.1285 41.85C71.8952 42.0833 73.3619 42.6 74.5285 43.4C75.7285 44.2 76.6619 45.2 77.3285 46.4C77.9952 47.5667 78.3285 48.9667 78.3285 50.6C78.3285 53.0333 77.6119 54.7833 76.1785 55.85C74.7785 56.9167 73.3618 57.6333 71.9285 58C70.5285 58.3333 68.7952 58.5 66.7285 58.5V58.9C69.1618 58.9 70.9785 59 72.1785 59.2C73.4119 59.3667 74.6285 59.7 75.8285 60.2C77.0619 60.7 78.1452 61.65 79.0785 63.05C80.0119 64.4167 80.4785 66.1833 80.4785 68.35C80.4785 70.45 79.9952 72.2 79.0285 73.6C78.0619 75 76.8285 76.05 75.3285 76.75C73.8285 77.4167 71.9952 77.8 69.8285 77.9C67.6619 78 65.7785 78.05 64.1785 78.05ZM64.2285 76.6C65.3285 76.3333 66.1119 75.2833 66.5785 73.45C67.0785 71.6167 67.3285 69.7 67.3285 67.7C67.3285 65.9 66.9452 64.15 66.1785 62.45C65.4452 60.7167 64.5452 59.7833 63.4785 59.65C62.4118 59.5167 61.5785 59.45 60.9785 59.45C60.4119 59.4167 59.9785 59.4 59.6785 59.4H58.0285V77.1H58.6285C59.8285 77.1 60.8285 77.0833 61.6285 77.05C62.4285 76.9833 63.2952 76.8333 64.2285 76.6Z" fill="white"/>
</svg>
