<svg width="20" height="20" viewBox="0 0 20 20" fill="none" xmlns="http://www.w3.org/2000/svg">
<g clip-path="url(#clip0_1493_2999)">
<path d="M16.6301 4.4574C16.247 4.07416 15.7922 3.77014 15.2916 3.56272C14.791 3.3553 14.2545 3.24854 13.7126 3.24854C13.1707 3.24854 12.6342 3.3553 12.1336 3.56272C11.633 3.77014 11.1782 4.07416 10.7951 4.4574L10.0001 5.2524L9.20509 4.4574C8.43132 3.68364 7.38186 3.24894 6.28759 3.24894C5.19331 3.24894 4.14386 3.68364 3.37009 4.4574C2.59632 5.23117 2.16162 6.28063 2.16162 7.3749C2.16162 8.46918 2.59632 9.51864 3.37009 10.2924L4.16509 11.0874L10.0001 16.9224L15.8351 11.0874L16.6301 10.2924C17.0133 9.90934 17.3174 9.45451 17.5248 8.95392C17.7322 8.45333 17.839 7.91677 17.839 7.3749C17.839 6.83304 17.7322 6.29648 17.5248 5.79589C17.3174 5.29529 17.0133 4.84047 16.6301 4.4574Z" fill="#373C22" stroke="#373C22" stroke-width="2" stroke-linecap="round" stroke-linejoin="round"/>
</g>
<defs>
<clipPath id="clip0_1493_2999">
<rect width="20" height="20" fill="white"/>
</clipPath>
</defs>
</svg>
