<svg width="24" height="24" viewBox="0 0 24 24" fill="none" xmlns="http://www.w3.org/2000/svg">
<path fill-rule="evenodd" clip-rule="evenodd" d="M18.9998 5.61818C18.9998 6.51188 18.2753 7.23636 17.3816 7.23636C16.4879 7.23636 15.7634 6.51188 15.7634 5.61818C15.7634 4.72448 16.4879 4 17.3816 4C18.2753 4 18.9998 4.72448 18.9998 5.61818ZM20.9998 5.61818C20.9998 7.61645 19.3799 9.23636 17.3816 9.23636C16.4381 9.23636 15.579 8.87523 14.9348 8.28364L10.0445 11.0973C10.1105 11.3707 10.1455 11.6563 10.1455 11.95C10.1455 12.2467 10.1098 12.535 10.0425 12.811L14.8756 15.672C15.5258 15.0474 16.4089 14.6636 17.3816 14.6636C19.3799 14.6636 20.9998 16.2835 20.9998 18.2818C20.9998 20.28 19.3799 21.8999 17.3816 21.8999C15.3833 21.8999 13.7634 20.28 13.7634 18.2818C13.7634 17.9782 13.8008 17.6833 13.8712 17.4016L9.0475 14.5462C8.39599 15.1787 7.50715 15.5682 6.52736 15.5682C4.52909 15.5682 2.90918 13.9482 2.90918 11.95C2.90918 9.9517 4.52909 8.33179 6.52736 8.33179C7.51032 8.33179 8.40173 8.72376 9.05381 9.35993L13.8917 6.57642C13.8081 6.27122 13.7634 5.94992 13.7634 5.61818C13.7634 3.61992 15.3833 2 17.3816 2C19.3799 2 20.9998 3.61992 20.9998 5.61818ZM8.14554 11.95C8.14554 12.8437 7.42106 13.5682 6.52736 13.5682C5.63366 13.5682 4.90918 12.8437 4.90918 11.95C4.90918 11.0563 5.63366 10.3318 6.52736 10.3318C7.42106 10.3318 8.14554 11.0563 8.14554 11.95ZM17.3816 19.8999C18.2753 19.8999 18.9998 19.1755 18.9998 18.2818C18.9998 17.3881 18.2753 16.6636 17.3816 16.6636C16.4879 16.6636 15.7634 17.3881 15.7634 18.2818C15.7634 19.1755 16.4879 19.8999 17.3816 19.8999Z" fill="#898989"/>
</svg>
