<svg width="36" height="36" viewBox="0 0 36 36" fill="none" xmlns="http://www.w3.org/2000/svg">
<path fill-rule="evenodd" clip-rule="evenodd" d="M18.9016 4.80113C18.6507 4.61207 18.3384 4.5 18 4.5C17.6172 4.5 17.2679 4.64339 17.0029 4.87938L5.01227 15.3711C4.38881 15.9167 4.32563 16.8643 4.87115 17.4878C5.41668 18.1112 6.36432 18.1744 6.98778 17.6289L16.5 9.30569V30C16.5 30.8284 17.1716 31.5 18 31.5C18.8284 31.5 19.5 30.8284 19.5 30V9.3056L29.0123 17.6289C29.6358 18.1744 30.5834 18.1112 31.1289 17.4878C31.6744 16.8643 31.6113 15.9167 30.9878 15.3711L18.9878 4.87113C18.9812 4.86538 18.9746 4.85969 18.968 4.85407C18.9464 4.83582 18.9243 4.81816 18.9016 4.80113Z" fill="#373C22"/>
</svg>
