<svg xmlns="http://www.w3.org/2000/svg" width="60" height="60" fill="none" viewBox="0 0 60 60"><path stroke="#676767" stroke-linecap="round" stroke-linejoin="round" stroke-width="3" d="M33.516 10.945c0-1.607-1.18-3.215-2.172-4.285a1.812 1.812 0 0 0-2.688 0c-.993 1.07-2.172 2.678-2.172 4.287 0 2.108 1.574 3.819 3.516 3.819s3.516-1.711 3.516-3.82zm12.89 0c0-1.607-1.179-3.215-2.171-4.285a1.813 1.813 0 0 0-2.688 0c-.993 1.07-2.172 2.678-2.172 4.287 0 2.108 1.574 3.819 3.516 3.819 1.941 0 3.515-1.711 3.515-3.82zm-25.781 0c0-1.607-1.179-3.215-2.172-4.285a1.812 1.812 0 0 0-2.688 0c-.992 1.07-2.171 2.678-2.171 4.287 0 2.108 1.574 3.819 3.515 3.819 1.942 0 3.516-1.711 3.516-3.82zm33.512 18.174c-.281-2.543-2.27-4.319-4.823-4.493-3.44-.236-9.419-.485-19.314-.485s-15.874.25-19.314.485c-2.553.176-4.542 1.95-4.823 4.493-.25 2.26-.472 5.58-.472 10.256s.221 7.996.472 10.256c.281 2.543 2.27 4.317 4.823 4.493 3.44.236 9.419.485 19.314.485s15.874-.25 19.314-.485c2.554-.176 4.542-1.95 4.823-4.493.25-2.261.472-5.58.472-10.256s-.221-7.996-.472-10.256z"/><path stroke="#676767" stroke-linecap="round" stroke-linejoin="round" stroke-width="3" d="M45.804 24.431c.146-1.68.308-3.888.473-6.761.082-1.415-.734-2.715-2.144-2.848a13.142 13.142 0 0 0-1.242-.056c-.416-.001-.83.018-1.244.056-1.41.134-2.226 1.433-2.144 2.848.158 2.765.315 4.916.457 6.57m-7.022-.092c.14-1.642.293-3.763.449-6.478.082-1.415-.735-2.715-2.145-2.848A13.143 13.143 0 0 0 30 14.766c-.415-.001-.83.018-1.243.056-1.411.134-2.227 1.433-2.145 2.848.156 2.715.31 4.836.448 6.479m-7.02.091c.14-1.654.297-3.805.456-6.57.082-1.415-.735-2.715-2.144-2.848a13.14 13.14 0 0 0-1.243-.056 13.1 13.1 0 0 0-1.243.056c-1.41.134-2.227 1.433-2.144 2.848.164 2.873.328 5.08.472 6.761M5.39 39.952a10.747 10.747 0 0 0 6.196 1.964c3.203 0 6.087-1.409 8.105-3.66.57-.635 1.637-.635 2.207 0 2.018 2.25 4.902 3.66 8.104 3.66 3.202 0 6.087-1.409 8.105-3.66.57-.635 1.637-.635 2.207 0 2.018 2.25 4.902 3.66 8.104 3.66 2.216 0 4.377-.684 6.189-1.96"/></svg>