<svg width="24" height="24" viewBox="0 0 24 24" fill="none" xmlns="http://www.w3.org/2000/svg">
<path fill-rule="evenodd" clip-rule="evenodd" d="M4.70711 3.29265C4.31658 2.90212 3.68342 2.90212 3.29289 3.29265C2.90237 3.68317 2.90237 4.31634 3.29289 4.70686L10.5859 11.9999L3.29291 19.2929C2.90239 19.6834 2.90239 20.3166 3.29291 20.7071C3.68344 21.0976 4.3166 21.0976 4.70712 20.7071L12.0001 13.4141L19.2931 20.7071C19.6836 21.0976 20.3168 21.0976 20.7073 20.7071C21.0979 20.3166 21.0979 19.6834 20.7073 19.2929L13.4143 11.9999L20.7074 4.70686C21.0979 4.31634 21.0979 3.68317 20.7074 3.29265C20.3168 2.90212 19.6837 2.90212 19.2931 3.29265L12.0001 10.5857L4.70711 3.29265Z" fill="#373C22"/>
</svg>
