<svg width="60" height="60" viewBox="0 0 60 60" fill="none" xmlns="http://www.w3.org/2000/svg">
<path d="M42.396 8.10815V15.6335" stroke="#676767" stroke-width="3" stroke-linecap="round" stroke-linejoin="round"/>
<path d="M42.396 25.74V34.2604" stroke="#676767" stroke-width="3" stroke-linecap="round" stroke-linejoin="round"/>
<path d="M42.396 44.3667V51.892" stroke="#676767" stroke-width="3" stroke-linecap="round" stroke-linejoin="round"/>
<path d="M4.12695 47.214C4.12695 49.7976 6.02782 51.8921 8.37265 51.8921H51.6258C53.9707 51.8921 55.8717 49.7976 55.8717 47.214V38.6078C52.4315 37.5802 49.9011 34.1158 49.9011 30.0001C49.9011 25.8845 52.4315 22.42 55.8717 21.3924V12.7862C55.8717 10.2026 53.9707 8.10815 51.6258 8.10815H8.37265C6.02782 8.10815 4.12695 10.2026 4.12695 12.7862V21.373C7.60086 22.3755 10.1638 25.858 10.1638 30.0001C10.1638 34.1422 7.60086 37.6247 4.12695 38.6273V47.214Z" stroke="#676767" stroke-width="3" stroke-linecap="round" stroke-linejoin="round"/>
<path d="M27.6948 23.6529H30.0308L22.4148 36.0062H20.1268L27.6948 23.6529ZM17.3428 26.8066C17.3428 26.1856 17.4814 25.6192 17.7588 25.1072C18.0468 24.5952 18.4361 24.1921 18.9268 23.898C19.4174 23.5929 19.9614 23.4404 20.5588 23.4404C21.1454 23.4404 21.6788 23.5929 22.1588 23.898C22.6494 24.1921 23.0334 24.5952 23.3108 25.1072C23.5988 25.6192 23.7428 26.1856 23.7428 26.8066C23.7428 27.4275 23.5988 27.994 23.3108 28.506C23.0334 29.018 22.6494 29.4265 22.1588 29.7315C21.6788 30.0256 21.1454 30.1727 20.5588 30.1727C19.9614 30.1727 19.4174 30.0256 18.9268 29.7315C18.4361 29.4265 18.0468 29.018 17.7588 28.506C17.4814 27.994 17.3428 27.4275 17.3428 26.8066ZM19.5028 26.8066C19.5028 27.1225 19.6041 27.3894 19.8068 27.6072C20.0094 27.8251 20.2601 27.934 20.5588 27.934C20.8468 27.934 21.0921 27.8251 21.2948 27.6072C21.4974 27.3894 21.5988 27.1225 21.5988 26.8066C21.5988 26.4906 21.4974 26.2237 21.2948 26.0059C21.0921 25.788 20.8468 25.6791 20.5588 25.6791C20.2601 25.6791 20.0094 25.788 19.8068 26.0059C19.6041 26.2237 19.5028 26.4906 19.5028 26.8066ZM26.2548 32.7055C26.2548 32.0845 26.3934 31.518 26.6708 31.006C26.9588 30.494 27.3481 30.091 27.8388 29.7969C28.3294 29.4918 28.8734 29.3393 29.4708 29.3393C30.0574 29.3393 30.5908 29.4918 31.0708 29.7969C31.5614 30.091 31.9454 30.494 32.2228 31.006C32.5108 31.518 32.6548 32.0845 32.6548 32.7055C32.6548 33.3264 32.5108 33.8929 32.2228 34.4049C31.9454 34.9169 31.5614 35.3254 31.0708 35.6304C30.5908 35.9245 30.0574 36.0716 29.4708 36.0716C28.8734 36.0716 28.3294 35.9245 27.8388 35.6304C27.3481 35.3254 26.9588 34.9169 26.6708 34.4049C26.3934 33.8929 26.2548 33.3264 26.2548 32.7055ZM28.4148 32.7055C28.4148 33.0214 28.5161 33.2883 28.7188 33.5061C28.9214 33.724 29.1721 33.8329 29.4708 33.8329C29.7588 33.8329 30.0041 33.724 30.2068 33.5061C30.4094 33.2883 30.5108 33.0214 30.5108 32.7055C30.5108 32.3895 30.4094 32.1226 30.2068 31.9048C30.0041 31.6869 29.7588 31.578 29.4708 31.578C29.1721 31.578 28.9214 31.6869 28.7188 31.9048C28.5161 32.1226 28.4148 32.3895 28.4148 32.7055Z" fill="#676767"/>
</svg>
