<svg width="48" height="48" viewBox="0 0 48 48" fill="none" xmlns="http://www.w3.org/2000/svg">
<path d="M33.917 6.48657V12.5068" stroke="#373C22" stroke-width="3" stroke-linecap="round" stroke-linejoin="round"/>
<path d="M33.917 20.592V27.4084" stroke="#373C22" stroke-width="3" stroke-linecap="round" stroke-linejoin="round"/>
<path d="M33.917 35.4934V41.5136" stroke="#373C22" stroke-width="3" stroke-linecap="round" stroke-linejoin="round"/>
<path d="M3.30176 37.7712C3.30176 39.8381 4.82245 41.5137 6.69831 41.5137H41.3009C43.1767 41.5137 44.6975 39.8381 44.6975 37.7712V30.8863C41.9454 30.0642 39.9211 27.2927 39.9211 24.0001C39.9211 20.7076 41.9454 17.9361 44.6975 17.114V10.229C44.6975 8.16214 43.1767 6.48657 41.3009 6.48657H6.69831C4.82245 6.48657 3.30176 8.16214 3.30176 10.229V17.0984C6.08088 17.9005 8.13124 20.6865 8.13124 24.0001C8.13124 27.3138 6.08088 30.0998 3.30176 30.9019V37.7712Z" stroke="#373C22" stroke-width="3" stroke-linecap="round" stroke-linejoin="round"/>
<path d="M22.1556 18.9224H24.0244L17.9316 28.8051H16.1012L22.1556 18.9224ZM13.874 21.4453C13.874 20.9486 13.985 20.4954 14.2068 20.0858C14.4372 19.6762 14.7487 19.3538 15.1412 19.1185C15.5338 18.8744 15.969 18.7524 16.4468 18.7524C16.9162 18.7524 17.3428 18.8744 17.7268 19.1185C18.1194 19.3538 18.4266 19.6762 18.6484 20.0858C18.8788 20.4954 18.994 20.9486 18.994 21.4453C18.994 21.9421 18.8788 22.3953 18.6484 22.8049C18.4266 23.2145 18.1194 23.5413 17.7268 23.7853C17.3428 24.0206 16.9162 24.1382 16.4468 24.1382C15.969 24.1382 15.5338 24.0206 15.1412 23.7853C14.7487 23.5413 14.4372 23.2145 14.2068 22.8049C13.985 22.3953 13.874 21.9421 13.874 21.4453ZM15.602 21.4453C15.602 21.6981 15.6831 21.9116 15.8452 22.0859C16.0074 22.2602 16.2079 22.3473 16.4468 22.3473C16.6772 22.3473 16.8735 22.2602 17.0356 22.0859C17.1978 21.9116 17.2788 21.6981 17.2788 21.4453C17.2788 21.1926 17.1978 20.9791 17.0356 20.8048C16.8735 20.6305 16.6772 20.5434 16.4468 20.5434C16.2079 20.5434 16.0074 20.6305 15.8452 20.8048C15.6831 20.9791 15.602 21.1926 15.602 21.4453ZM21.0036 26.1645C21.0036 25.6677 21.1146 25.2145 21.3364 24.8049C21.5668 24.3953 21.8783 24.0729 22.2708 23.8376C22.6634 23.5936 23.0986 23.4716 23.5764 23.4716C24.0458 23.4716 24.4724 23.5936 24.8564 23.8376C25.249 24.0729 25.5562 24.3953 25.778 24.8049C26.0084 25.2145 26.1236 25.6677 26.1236 26.1645C26.1236 26.6612 26.0084 27.1144 25.778 27.524C25.5562 27.9336 25.249 28.2604 24.8564 28.5044C24.4724 28.7397 24.0458 28.8574 23.5764 28.8574C23.0986 28.8574 22.6634 28.7397 22.2708 28.5044C21.8783 28.2604 21.5668 27.9336 21.3364 27.524C21.1146 27.1144 21.0036 26.6612 21.0036 26.1645ZM22.7316 26.1645C22.7316 26.4172 22.8127 26.6307 22.9748 26.805C23.137 26.9793 23.3375 27.0665 23.5764 27.0665C23.8068 27.0665 24.0031 26.9793 24.1652 26.805C24.3274 26.6307 24.4084 26.4172 24.4084 26.1645C24.4084 25.9117 24.3274 25.6982 24.1652 25.5239C24.0031 25.3496 23.8068 25.2625 23.5764 25.2625C23.3375 25.2625 23.137 25.3496 22.9748 25.5239C22.8127 25.6982 22.7316 25.9117 22.7316 26.1645Z" fill="#373C22"/>
</svg>
