<svg width="80" height="80" viewBox="0 0 80 80" fill="none" xmlns="http://www.w3.org/2000/svg">
<path d="M70 15H10C9.33696 15 8.70107 15.2634 8.23223 15.7322C7.76339 16.2011 7.5 16.837 7.5 17.5V60C7.5 61.3261 8.02678 62.5979 8.96447 63.5355C9.90215 64.4732 11.1739 65 12.5 65H67.5C68.8261 65 70.0979 64.4732 71.0355 63.5355C71.9732 62.5979 72.5 61.3261 72.5 60V17.5C72.5 16.837 72.2366 16.2011 71.7678 15.7322C71.2989 15.2634 70.663 15 70 15ZM40 41.6094L16.4281 20H63.5719L40 41.6094ZM30.8469 40L12.5 56.8156V23.1844L30.8469 40ZM34.5469 43.3906L38.2969 46.8437C38.7581 47.2671 39.3614 47.5021 39.9875 47.5021C40.6136 47.5021 41.2169 47.2671 41.6781 46.8437L45.4281 43.3906L63.5531 60H16.4281L34.5469 43.3906ZM49.1531 40L67.5 23.1812V56.8188L49.1531 40Z" fill="white"/>
</svg>
