<svg width="220" height="33" viewBox="0 0 220 33" fill="none" xmlns="http://www.w3.org/2000/svg">
<path d="M23.0012 25.5313C22.1503 27.8092 20.7881 29.5893 18.9108 30.8795C17.0334 32.1696 14.8203 32.8128 12.2752 32.8128C8.69987 32.8128 5.75794 31.8174 3.45324 29.8305C1.14854 27.8436 0 25.0872 0 21.569C0 18.2919 1.19051 15.5968 3.56771 13.4874C5.94873 11.378 8.8029 10.3252 12.1378 10.3252C15.6216 10.3252 18.2888 11.3129 20.1394 13.2845C21.9901 15.2561 22.9135 17.6718 22.9135 20.5239H8.97842C8.97842 21.6149 9.06237 22.7328 9.22644 23.8698C9.39052 25.0068 9.70722 26.1094 10.1727 27.1698C10.6383 28.2341 11.2984 29.0916 12.1569 29.7425C13.0116 30.3971 14.0724 30.6842 15.3621 30.6842C17.2166 30.6842 19.1741 29.7807 20.3073 28.7892C22.116 27.2043 23.0012 25.5313 23.0012 25.5313ZM13.7786 15.9643C14.6829 14.7546 14.6524 13.4415 14.2022 12.4882C13.7519 11.5311 12.8857 11.0526 11.7754 11.0526C10.4742 11.0526 9.75301 11.5924 9.37907 12.5188C9.00513 13.4453 9.02802 15.0455 8.97842 16.6994C8.92881 18.3494 8.97842 19.6127 8.97842 19.6127C8.97842 19.6127 11.6304 18.8432 13.7786 15.9643Z" fill="#676767"/>
<path d="M121.959 25.5313C121.108 27.8092 119.745 29.5893 117.868 30.8795C115.991 32.1696 113.778 32.8128 111.232 32.8128C107.657 32.8128 104.715 31.8174 102.411 29.8305C100.106 27.8436 98.9573 25.0872 98.9573 21.569C98.9573 18.2919 100.148 15.5968 102.525 13.4874C104.906 11.378 107.76 10.3252 111.095 10.3252C114.579 10.3252 117.246 11.3129 119.097 13.2845C120.947 15.2561 121.871 17.6718 121.871 20.5239H107.94C107.94 21.6149 108.023 22.7328 108.188 23.8698C108.352 25.0068 108.668 26.1094 109.134 27.1698C109.599 28.2341 110.259 29.0916 111.118 29.7425C111.973 30.3971 113.034 30.6842 114.323 30.6842C116.178 30.6842 118.135 29.7807 119.268 28.7892C121.073 27.2043 121.959 25.5313 121.959 25.5313ZM112.736 15.9643C113.64 14.7546 113.61 13.4415 113.159 12.4882C112.709 11.5311 111.843 11.0526 110.733 11.0526C109.431 11.0526 108.71 11.5924 108.336 12.5188C107.962 13.4453 107.985 15.0455 107.936 16.6994C107.886 18.3494 107.936 19.6127 107.936 19.6127C107.936 19.6127 110.588 18.8432 112.736 15.9643Z" fill="#676767"/>
<path d="M195.74 25.5313C194.889 27.8092 193.526 29.5893 191.649 30.8795C189.772 32.1696 187.559 32.8128 185.014 32.8128C181.438 32.8128 178.496 31.8174 176.192 29.8305C173.887 27.8436 172.738 25.0872 172.738 21.569C172.738 18.2919 173.929 15.5968 176.306 13.4874C178.687 11.378 181.541 10.3252 184.876 10.3252C188.36 10.3252 191.027 11.3129 192.878 13.2845C194.728 15.2561 195.652 17.6718 195.652 20.5239H181.721C181.721 21.6149 181.804 22.7328 181.969 23.8698C182.133 25.0068 182.449 26.1094 182.915 27.1698C183.38 28.2341 184.04 29.0916 184.899 29.7425C185.754 30.3971 186.815 30.6842 188.104 30.6842C189.959 30.6842 191.916 29.7807 193.049 28.7892C194.854 27.2043 195.74 25.5313 195.74 25.5313ZM186.517 15.9643C187.421 14.7546 187.391 13.4415 186.94 12.4882C186.49 11.5311 185.624 11.0526 184.514 11.0526C183.212 11.0526 182.491 11.5924 182.117 12.5188C181.743 13.4453 181.766 15.0455 181.717 16.6994C181.667 18.3494 181.717 19.6127 181.717 19.6127C181.717 19.6127 184.369 18.8432 186.517 15.9643Z" fill="#676767"/>
<path d="M38.6725 11.3474C37.9208 10.9569 36.757 10.819 35.7344 11.4048C34.4103 12.1628 34.1279 13.5869 34.0974 14.6703C34.0669 15.815 34.0593 19.919 34.0593 20.9794C34.0593 23.7396 34.4179 26.274 35.5855 28.1958C36.5891 29.842 38.1955 30.9484 40.5346 30.9484C42.202 30.9484 44.1023 30.1904 45.4149 29.2333C46.8992 28.146 48.353 26.0788 48.353 26.0788C46.323 30.5694 42.6866 32.8166 37.4438 32.8166C33.9868 32.8166 31.0486 31.7906 28.6257 29.7425C26.2027 27.6943 24.9893 24.9839 24.9893 21.6149C24.9893 18.2154 26.1798 15.4858 28.557 13.4223C30.938 11.3588 33.899 10.3252 37.4438 10.3252C38.7755 10.3252 40.0042 10.4707 41.126 10.7578C42.2478 11.0449 43.301 11.4392 44.2854 11.9407C45.2699 12.4423 46.2085 13.1543 47.1052 14.0808C47.9981 15.0072 48.4484 16.6764 48.4484 17.9206C48.4484 19.0423 48.4484 21.3776 48.4484 21.3776C48.4484 21.4771 44.7128 21.4235 44.3617 21.3776C43.0682 21.2053 41.7136 20.7076 40.8055 19.7161C40.3552 19.2222 40.0194 18.6327 39.7981 18.001C39.7256 17.7981 39.6684 17.5875 39.6302 17.377C39.4776 16.5692 39.4547 15.7308 39.6379 15.08C39.7294 14.7584 39.9546 13.943 39.9546 13.43C39.9546 12.5954 39.3822 11.7149 38.6725 11.3474Z" fill="#676767"/>
<path d="M74.6661 21.569C74.6661 24.7848 73.4489 27.4646 71.0145 29.6046C68.58 31.7447 65.7144 32.8128 62.4176 32.8128C58.9377 32.8128 56.0263 31.7447 53.6834 29.6046C51.3405 27.4646 50.1653 24.7886 50.1653 21.569C50.1653 18.3532 51.352 15.6734 53.7254 13.5333C56.0987 11.3933 58.9949 10.3252 62.4138 10.3252C65.7716 10.3252 68.6525 11.3895 71.0564 13.5104C73.4642 15.6389 74.6661 18.3226 74.6661 21.569ZM65.4549 16.6994C65.4549 15.0608 65.6762 13.786 65.1764 12.7217C64.6765 11.6613 63.4288 11.0526 62.368 11.0526C61.3988 11.0526 60.193 11.6268 59.6779 12.7332C59.1628 13.8396 59.3727 15.1489 59.3727 16.6994C59.3727 17.2774 59.3727 26.2281 59.3727 26.4424C59.3727 28.081 59.2467 29.4171 59.7428 30.4775C60.2426 31.5418 61.3835 32.0892 62.41 32.0892C63.4097 32.0892 64.5926 31.5418 65.1039 30.4507C65.619 29.3596 65.4473 28.0235 65.4473 26.4424C65.4549 25.8337 65.4549 16.9444 65.4549 16.6994Z" fill="#676767"/>
<path d="M148.252 32.3604C148.252 32.3604 149.737 32.0388 150.66 30.6644C150.874 30.3505 151.301 29.6231 151.335 28.7618L151.381 26.6677C151.381 26.6677 151.381 17.4759 151.381 15.7876C151.381 13.6169 151.015 12.9201 150.488 12.2234C149.595 11.0443 148.249 10.7801 148.249 10.7801H160.047V14.6046C160.253 14.0572 160.577 13.257 161.42 12.2808C162.416 11.1285 163.649 10.5083 166.129 10.5083C167.583 10.5083 169.334 11.0175 170.345 12.032C171.357 13.0503 171.864 14.2562 171.864 15.6497C171.864 17.0471 171.387 18.2071 170.433 19.1335C169.479 20.06 167.789 20.5232 166.396 20.5232C165.248 20.5232 163.187 20.5232 163.187 20.5232C163.187 20.5232 163.187 19.3479 163.187 18.5976C163.187 17.8472 163.218 16.1283 163.305 15.4392C163.485 14.015 164.652 13.4063 164.511 12.8206C164.378 12.2617 163.576 12.166 163.424 12.166C162.641 12.166 161.577 12.8436 161.001 13.7853C160.425 14.7271 160.135 15.6076 160.135 16.4269V26.9433L160.18 28.6086C160.18 29.4585 160.699 30.4845 161.192 31.0358C162.241 32.2111 163.401 32.3604 163.401 32.3604H148.252Z" fill="#676767"/>
<path d="M211.285 18.598C211.285 19.3522 211.285 20.5237 211.285 20.5237C211.285 20.5237 213.345 20.5237 214.494 20.5237C215.887 20.5237 217.615 20.0604 218.569 19.134C219.523 18.2075 220 17.0475 220 15.6502C220 14.2529 219.493 13.0469 218.481 12.0324C217.466 11.0141 215.677 10.5088 214.227 10.5088C213.227 10.5088 211.674 10.7308 210.453 11.3318C209.179 11.9559 208.263 12.9589 208.263 12.9589V0C208.263 0 206.924 3.7977 202.661 7.66814C198.853 11.1251 193.584 12.511 193.584 12.511H199.506V26.5762C199.506 28.5478 200.311 30.083 201.925 31.1741C203.539 32.2651 205.393 32.8126 207.492 32.8126C210.77 32.8126 212.907 32.1694 213.899 30.8793C214.891 29.5891 215.387 28.0961 215.387 26.3963C215.387 26.3963 215.089 28.2339 214.41 29.3977C213.841 30.3701 212.544 31.1779 211.373 31.1779C210.503 31.1779 209.782 30.8448 209.209 30.1749C208.637 29.5087 208.354 28.521 208.354 27.2156L208.263 24.8956C208.263 24.8956 208.263 17.729 208.263 16.1785C208.263 14.8156 209.408 13.1082 210.129 12.6718C210.61 12.3808 211.048 12.1626 211.724 12.197C212.197 12.2238 212.617 12.4267 212.666 12.9168C212.716 13.4068 211.647 13.6863 211.403 15.8799C211.323 16.569 211.285 17.8438 211.285 18.598Z" fill="#676767"/>
<path d="M94.5692 14.2258C92.9246 11.6263 89.8415 10.3247 86.8461 10.3247C84.3964 10.3247 82.3245 10.9372 80.6303 12.17C78.9361 13.3989 78.089 15.1369 78.089 17.3841C78.089 18.4178 78.3065 19.3251 78.7453 20.1137C79.1841 20.9024 79.8023 21.6106 80.6074 22.2308C81.4087 22.8548 82.4084 23.4903 83.6027 24.1411C84.7971 24.7958 85.8502 25.3853 86.7545 25.9175C87.6627 26.4496 88.3266 26.9435 88.7502 27.3952C89.1737 27.8508 89.582 28.3944 89.5934 29.4816C89.6011 30.4464 89.1317 31.0245 88.651 31.3384C88.0786 31.7097 87.4719 31.8016 86.7164 31.8016C85.3847 31.8016 83.9881 31.5107 82.8396 31.0819C81.6605 30.6416 80.6837 30.0023 79.8214 29.0758C78.1234 27.2574 77.6731 24.8379 77.6731 24.8379C77.6731 24.8379 77.8372 26.2659 78.0089 26.9588C78.1997 27.7244 78.4668 28.3599 78.8941 29.0222C80.7677 31.9241 84.0912 32.8199 87.3422 32.8199C89.8529 32.8199 91.9935 32.2266 93.764 31.0436C95.5345 29.8607 96.4198 28.0996 96.4198 25.7643C96.4198 24.4895 96.0878 23.3602 95.4201 22.3724C94.7561 21.3847 93.9243 20.5578 92.9246 19.8917C91.9249 19.2256 90.7992 18.5479 89.5438 17.8665C88.2885 17.1851 87.2964 16.6223 86.5714 16.182C85.8464 15.7418 85.2931 15.3245 84.9154 14.9302C84.5376 14.5359 84.3468 13.9884 84.3468 13.2917C84.3468 12.6868 84.6101 12.1776 85.1405 11.768C85.6709 11.3584 86.3577 11.1516 87.2048 11.1516C87.2697 11.1516 87.3345 11.1516 87.3994 11.1555C88.9829 11.2052 90.7801 11.745 92.108 12.6562C93.3519 13.5099 94.0464 14.0458 94.9889 15.8107C95.3361 16.4615 95.6681 17.2655 95.6681 17.2655C95.4964 15.9179 95.153 15.1484 94.5692 14.2258Z" fill="#676767"/>
<path d="M137.633 11.3474C136.882 10.9569 135.718 10.819 134.695 11.4048C133.371 12.1628 133.089 13.5869 133.058 14.6703C133.028 15.815 133.02 19.919 133.02 20.9794C133.02 23.7396 133.379 26.274 134.546 28.1958C135.55 29.842 137.156 30.9484 139.495 30.9484C141.163 30.9484 143.063 30.1904 144.376 29.2333C145.86 28.146 147.314 26.0788 147.314 26.0788C145.284 30.5694 141.648 32.8166 136.405 32.8166C132.948 32.8166 130.01 31.7906 127.587 29.7425C125.164 27.6943 123.95 24.9839 123.95 21.6149C123.95 18.2154 125.141 15.4858 127.518 13.4223C129.899 11.3588 132.86 10.3252 136.405 10.3252C137.736 10.3252 138.965 10.4707 140.087 10.7578C141.209 11.0449 142.262 11.4392 143.246 11.9407C144.231 12.4423 145.169 13.1543 146.066 14.0808C146.959 15.0072 147.409 16.6764 147.409 17.9206C147.409 19.0423 147.409 21.3776 147.409 21.3776C147.409 21.4771 143.674 21.4235 143.323 21.3776C142.029 21.2053 140.675 20.7076 139.766 19.7161C139.316 19.2222 138.98 18.6327 138.759 18.001C138.687 17.7981 138.629 17.5875 138.591 17.377C138.439 16.5692 138.416 15.7308 138.599 15.08C138.69 14.7584 138.916 13.943 138.916 13.43C138.916 12.5954 138.343 11.7149 137.633 11.3474Z" fill="#676767"/>
</svg>
