<svg width="120" height="120" viewBox="0 0 120 120" fill="none" xmlns="http://www.w3.org/2000/svg">
<path d="M0 60C0 26.8629 26.8629 0 60 0H120V60C120 93.1371 93.1371 120 60 120H0V60Z" fill="#E05364"/>
<path d="M56.7473 59.8V71.5L56.8473 73.8C56.9473 74.8667 57.2139 75.6333 57.6473 76.1C58.0806 76.5667 58.8139 76.8667 59.8473 77L62.3973 77.2V78H38.3973V77.2H39.9473C40.6806 77.1 41.3806 77.0167 42.0473 76.95C42.7139 76.85 43.2306 76.6 43.5973 76.2C43.9973 75.7667 44.2473 75.0167 44.3473 73.95L44.4473 71.65V47.95L44.3473 45.65C44.2473 44.5833 43.9973 43.8333 43.5973 43.4C43.1973 42.9667 42.6306 42.7 41.8973 42.6C41.1639 42.5 40.5306 42.45 39.9973 42.45C39.4639 42.4167 38.9639 42.3833 38.4973 42.35V41.55L60.8473 41.5C63.9473 41.5 66.4639 41.6333 68.3973 41.9C70.3306 42.1667 71.8973 42.7 73.0973 43.5C74.3306 44.3 75.2973 45.3 75.9973 46.5C76.7306 47.6667 77.0973 49.0333 77.0973 50.6C77.0973 51.7667 76.8806 52.9333 76.4473 54.1C76.0473 55.2667 75.4139 56.2667 74.5473 57.1C73.6806 57.9333 72.5973 58.5833 71.2973 59.05C70.0306 59.5167 67.9973 59.75 65.1973 59.75V60.1C66.8973 60.4667 68.3139 60.8167 69.4473 61.15C70.6139 61.4833 71.6639 61.9667 72.5973 62.6C73.5306 63.2333 74.3639 64.1833 75.0973 65.45C75.8639 66.6833 76.4806 68.05 76.9473 69.55C77.4139 71.0167 77.8306 72.0667 78.1973 72.7C78.5639 73.3 79.0806 73.6 79.7473 73.6C80.6139 73.6 81.1806 73.05 81.4473 71.95C81.7473 70.8167 81.8973 69.5333 81.8973 68.1H82.6973C82.6973 69.7333 82.5973 71.0333 82.3973 72C82.1973 72.9667 81.6973 73.9833 80.8973 75.05C80.0973 76.0833 78.9473 76.9333 77.4473 77.6C75.9806 78.2333 74.3806 78.55 72.6473 78.55C69.9473 78.55 67.7806 77.7833 66.1473 76.25C64.5473 74.6833 63.5473 72.65 63.1473 70.15C62.7806 67.6167 62.4806 65.4833 62.2473 63.75C61.8806 61.8167 61.3973 60.7 60.7973 60.4C60.1973 60.0667 59.5473 59.8833 58.8473 59.85C58.1473 59.8167 57.4473 59.8 56.7473 59.8ZM60.7473 58.75C62.0139 58.55 62.9639 57.6333 63.5973 56C64.2639 54.3667 64.5973 52.55 64.5973 50.55C64.5973 48.9167 64.2639 47.3167 63.5973 45.75C62.9306 44.15 62.1306 43.2167 61.1973 42.95C60.2639 42.6833 59.4306 42.5333 58.6973 42.5C57.9639 42.4667 57.3139 42.4333 56.7473 42.4V58.9H58.4473C59.3806 58.9 60.1473 58.85 60.7473 58.75Z" fill="white"/>
</svg>
