<svg width="280" height="42" viewBox="0 0 280 42" fill="none" xmlns="http://www.w3.org/2000/svg">
<path d="M29.2743 32.4942C28.1913 35.3933 26.4576 37.659 24.0683 39.301C21.6789 40.943 18.8622 41.7616 15.623 41.7616C11.0726 41.7616 7.32829 40.4947 4.39503 37.9659C1.46177 35.4372 0 31.929 0 27.4513C0 23.2805 1.51519 19.8503 4.54072 17.1656C7.57111 14.4809 11.2037 13.141 15.4482 13.141C19.8821 13.141 23.2767 14.3981 25.632 16.9074C27.9874 19.4167 29.1626 22.4912 29.1626 26.1211H11.4271C11.4271 27.5097 11.5339 28.9325 11.7427 30.3796C11.9516 31.8267 12.3547 33.23 12.9471 34.5796C13.5396 35.9341 14.3798 37.0256 15.4725 37.8539C16.5603 38.6871 17.9104 39.0525 19.5518 39.0525C21.912 39.0525 24.4034 37.9026 25.8457 36.6406C28.1476 34.6235 29.2743 32.4942 29.2743 32.4942ZM17.5364 20.3181C18.6874 18.7784 18.6485 17.1071 18.0755 15.8939C17.5024 14.6758 16.4 14.0667 14.9868 14.0667C13.3308 14.0667 12.4129 14.7538 11.937 15.9329C11.4611 17.112 11.4902 19.1487 11.4271 21.2536C11.364 23.3536 11.4271 24.9615 11.4271 24.9615C11.4271 24.9615 14.8023 23.9821 17.5364 20.3181Z" fill="#373C22"/>
<path d="M155.22 32.4942C154.137 35.3933 152.403 37.659 150.014 39.301C147.625 40.943 144.808 41.7616 141.569 41.7616C137.018 41.7616 133.274 40.4947 130.341 37.9659C127.408 35.4372 125.946 31.929 125.946 27.4513C125.946 23.2805 127.461 19.8503 130.487 17.1656C133.517 14.4809 137.149 13.141 141.394 13.141C145.828 13.141 149.222 14.3981 151.578 16.9074C153.933 19.4167 155.108 22.4912 155.108 26.1211H137.378C137.378 27.5097 137.485 28.9325 137.693 30.3796C137.902 31.8267 138.305 33.23 138.898 34.5796C139.49 35.9341 140.33 37.0256 141.423 37.8539C142.511 38.6871 143.861 39.0525 145.502 39.0525C147.863 39.0525 150.354 37.9026 151.796 36.6406C154.093 34.6235 155.22 32.4942 155.22 32.4942ZM143.482 20.3181C144.633 18.7784 144.594 17.1071 144.021 15.8939C143.448 14.6758 142.346 14.0667 140.933 14.0667C139.277 14.0667 138.359 14.7538 137.883 15.9329C137.407 17.112 137.436 19.1487 137.373 21.2536C137.31 23.3536 137.373 24.9615 137.373 24.9615C137.373 24.9615 140.748 23.9821 143.482 20.3181Z" fill="#373C22"/>
<path d="M249.123 32.4942C248.04 35.3933 246.306 37.659 243.917 39.301C241.528 40.943 238.711 41.7616 235.472 41.7616C230.921 41.7616 227.177 40.4947 224.244 37.9659C221.31 35.4372 219.849 31.929 219.849 27.4513C219.849 23.2805 221.364 19.8503 224.389 17.1656C227.42 14.4809 231.052 13.141 235.297 13.141C239.731 13.141 243.125 14.3981 245.481 16.9074C247.836 19.4167 249.011 22.4912 249.011 26.1211H231.281C231.281 27.5097 231.387 28.9325 231.596 30.3796C231.805 31.8267 232.208 33.23 232.801 34.5796C233.393 35.9341 234.233 37.0256 235.326 37.8539C236.414 38.6871 237.764 39.0525 239.405 39.0525C241.766 39.0525 244.257 37.9026 245.699 36.6406C247.996 34.6235 249.123 32.4942 249.123 32.4942ZM237.385 20.3181C238.536 18.7784 238.497 17.1071 237.924 15.8939C237.351 14.6758 236.249 14.0667 234.835 14.0667C233.179 14.0667 232.262 14.7538 231.786 15.9329C231.31 17.112 231.339 19.1487 231.276 21.2536C231.213 23.3536 231.276 24.9615 231.276 24.9615C231.276 24.9615 234.651 23.9821 237.385 20.3181Z" fill="#373C22"/>
<path d="M49.2192 14.4419C48.2625 13.9449 46.7813 13.7695 45.4798 14.515C43.7946 15.4798 43.4353 17.2923 43.3964 18.6712C43.3575 20.128 43.3478 25.3513 43.3478 26.7009C43.3478 30.2139 43.8043 33.4395 45.2904 35.8854C46.5676 37.9806 48.6122 39.3887 51.5891 39.3887C53.7114 39.3887 56.1299 38.424 57.8005 37.2059C59.6896 35.8221 61.5399 33.191 61.5399 33.191C58.9563 38.9063 54.3281 41.7664 47.6555 41.7664C43.2556 41.7664 39.5161 40.4606 36.4323 37.8539C33.3485 35.2471 31.8042 31.7975 31.8042 27.5097C31.8042 23.183 33.3194 19.709 36.3449 17.0828C39.3753 14.4565 43.1439 13.141 47.6555 13.141C49.3503 13.141 50.9141 13.3261 52.3419 13.6916C53.7697 14.057 55.11 14.5589 56.363 15.1972C57.6159 15.8354 58.8106 16.7417 59.9518 17.9208C61.0882 19.1 61.6613 21.2243 61.6613 22.8079C61.6613 24.2355 61.6613 27.2077 61.6613 27.2077C61.6613 27.3343 56.9069 27.2661 56.4601 27.2077C54.8138 26.9884 53.0898 26.355 51.9339 25.093C51.3609 24.4645 50.9335 23.7141 50.6518 22.9102C50.5596 22.6519 50.4867 22.384 50.4382 22.116C50.2439 21.0879 50.2148 20.0208 50.4479 19.1925C50.5644 18.7832 50.851 17.7454 50.851 17.0925C50.851 16.0303 50.1225 14.9097 49.2192 14.4419Z" fill="#373C22"/>
<path d="M95.0301 27.4513C95.0301 31.5441 93.4809 34.9548 90.3825 37.6785C87.2841 40.4022 83.637 41.7616 79.441 41.7616C75.012 41.7616 71.3066 40.4022 68.3248 37.6785C65.3429 34.9548 63.8472 31.549 63.8472 27.4513C63.8472 23.3584 65.3575 19.9478 68.3782 17.2241C71.3989 14.5004 75.0849 13.141 79.4362 13.141C83.7098 13.141 87.3764 14.4955 90.4359 17.1948C93.5003 19.9039 95.0301 23.3195 95.0301 27.4513ZM83.3067 21.2536C83.3067 19.1682 83.5884 17.5457 82.9522 16.1911C82.316 14.8415 80.728 14.0667 79.3779 14.0667C78.1444 14.0667 76.6098 14.7976 75.9542 16.2057C75.2985 17.6139 75.5656 19.2802 75.5656 21.2536C75.5656 21.9893 75.5656 33.381 75.5656 33.6539C75.5656 35.7393 75.4054 37.4397 76.0367 38.7894C76.6729 40.1439 78.125 40.8407 79.4313 40.8407C80.7037 40.8407 82.2092 40.1439 82.8599 38.7553C83.5156 37.3666 83.297 35.6662 83.297 33.6539C83.3067 32.8791 83.3067 21.5654 83.3067 21.2536Z" fill="#373C22"/>
<path d="M188.686 41.1866C188.686 41.1866 190.575 40.7773 191.75 39.0281C192.022 38.6286 192.566 37.7028 192.609 36.6066L192.668 33.9413C192.668 33.9413 192.668 22.2427 192.668 20.0939C192.668 17.3313 192.202 16.4445 191.531 15.5577C190.395 14.057 188.681 13.7208 188.681 13.7208H203.697V18.5884C203.959 17.8916 204.372 16.8733 205.445 15.6308C206.712 14.1642 208.281 13.3749 211.438 13.3749C213.288 13.3749 215.517 14.0229 216.804 15.3141C218.091 16.6102 218.737 18.145 218.737 19.9185C218.737 21.697 218.13 23.1733 216.916 24.3524C215.702 25.5316 213.55 26.1211 211.778 26.1211C210.316 26.1211 207.693 26.1211 207.693 26.1211C207.693 26.1211 207.693 24.6253 207.693 23.6703C207.693 22.7153 207.732 20.5276 207.844 19.6506C208.072 17.838 209.558 17.0633 209.379 16.3178C209.209 15.6064 208.189 15.4846 207.995 15.4846C206.999 15.4846 205.644 16.3471 204.911 17.5457C204.177 18.7443 203.808 19.8649 203.808 20.9076V34.2922L203.867 36.4117C203.867 37.4933 204.527 38.7991 205.154 39.5008C206.489 40.9966 207.965 41.1866 207.965 41.1866H188.686Z" fill="#373C22"/>
<path d="M268.908 23.6702C268.908 24.6301 268.908 26.121 268.908 26.121C268.908 26.121 271.53 26.121 272.992 26.121C274.764 26.121 276.964 25.5315 278.179 24.3523C279.393 23.1732 280 21.6969 280 19.9184C280 18.14 279.354 16.6052 278.067 15.314C276.775 14.0179 274.497 13.3748 272.652 13.3748C271.38 13.3748 269.403 13.6574 267.849 14.4224C266.227 15.2166 265.061 16.4931 265.061 16.4931V0C265.061 0 263.357 4.83344 257.932 9.75945C253.086 14.1592 246.379 15.9231 246.379 15.9231H253.916V33.8243C253.916 36.3336 254.941 38.2874 256.995 39.6761C259.049 41.0647 261.409 41.7615 264.08 41.7615C268.252 41.7615 270.972 40.9429 272.234 39.3009C273.497 37.6589 274.128 35.7587 274.128 33.5953C274.128 33.5953 273.75 35.9341 272.885 37.4153C272.161 38.6529 270.51 39.681 269.019 39.681C267.912 39.681 266.994 39.2571 266.266 38.4044C265.537 37.5566 265.178 36.2995 265.178 34.638L265.061 31.6853C265.061 31.6853 265.061 22.5642 265.061 20.5908C265.061 18.8562 266.518 16.6832 267.436 16.1277C268.048 15.7574 268.607 15.4797 269.466 15.5235C270.068 15.5576 270.603 15.8159 270.666 16.4395C270.729 17.0632 269.369 17.4189 269.058 20.2108C268.956 21.0878 268.908 22.7103 268.908 23.6702Z" fill="#373C22"/>
<path d="M120.361 18.106C118.267 14.7976 114.343 13.141 110.531 13.141C107.413 13.141 104.776 13.9206 102.62 15.4895C100.464 17.0535 99.3858 19.2656 99.3858 22.1257C99.3858 23.4413 99.6626 24.596 100.221 25.5998C100.78 26.6035 101.566 27.5049 102.591 28.2942C103.611 29.0884 104.883 29.8972 106.403 30.7255C107.923 31.5587 109.264 32.3091 110.415 32.9863C111.57 33.6636 112.415 34.2921 112.955 34.8671C113.494 35.4469 114.013 36.1388 114.028 37.5226C114.038 38.7504 113.44 39.4861 112.828 39.8857C112.1 40.3583 111.328 40.4752 110.366 40.4752C108.671 40.4752 106.894 40.1049 105.432 39.5592C103.931 38.9989 102.688 38.1852 101.591 37.0061C99.4295 34.6917 98.8564 31.6123 98.8564 31.6123C98.8564 31.6123 99.0653 33.4297 99.2838 34.3116C99.5266 35.2861 99.8666 36.0949 100.41 36.9379C102.795 40.6312 107.025 41.7713 111.163 41.7713C114.358 41.7713 117.082 41.0161 119.336 39.5105C121.589 38.0049 122.716 35.7636 122.716 32.7914C122.716 31.1689 122.293 29.7316 121.444 28.4745C120.599 27.2174 119.54 26.165 118.267 25.3172C116.995 24.4694 115.562 23.6069 113.965 22.7397C112.367 21.8724 111.104 21.1561 110.182 20.5958C109.259 20.0355 108.555 19.5044 108.074 19.0025C107.593 18.5006 107.35 17.8039 107.35 16.9171C107.35 16.1473 107.685 15.4992 108.36 14.9779C109.035 14.4565 109.91 14.1934 110.988 14.1934C111.07 14.1934 111.153 14.1934 111.235 14.1983C113.251 14.2616 115.538 14.9487 117.228 16.1083C118.811 17.1948 119.695 17.877 120.895 20.1232C121.337 20.9515 121.759 21.9747 121.759 21.9747C121.541 20.2596 121.104 19.2802 120.361 18.106Z" fill="#373C22"/>
<path d="M175.17 14.4419C174.213 13.9449 172.732 13.7695 171.43 14.515C169.745 15.4798 169.386 17.2923 169.347 18.6712C169.308 20.128 169.299 25.3513 169.299 26.7009C169.299 30.2139 169.755 33.4395 171.241 35.8854C172.518 37.9806 174.563 39.3887 177.54 39.3887C179.662 39.3887 182.081 38.424 183.751 37.2059C185.64 35.8221 187.491 33.191 187.491 33.191C184.907 38.9063 180.279 41.7664 173.606 41.7664C169.206 41.7664 165.467 40.4606 162.383 37.8539C159.299 35.2471 157.755 31.7975 157.755 27.5097C157.755 23.183 159.27 19.709 162.296 17.0828C165.326 14.4565 169.095 13.141 173.606 13.141C175.301 13.141 176.865 13.3261 178.293 13.6916C179.72 14.057 181.061 14.5589 182.314 15.1972C183.567 15.8354 184.761 16.7417 185.903 17.9208C187.039 19.1 187.612 21.2243 187.612 22.8079C187.612 24.2355 187.612 27.2077 187.612 27.2077C187.612 27.3343 182.858 27.2661 182.411 27.2077C180.764 26.9884 179.04 26.355 177.885 25.093C177.312 24.4645 176.884 23.7141 176.603 22.9102C176.51 22.6519 176.437 22.384 176.389 22.116C176.195 21.0879 176.165 20.0208 176.399 19.1925C176.515 18.7832 176.802 17.7454 176.802 17.0925C176.802 16.0303 176.073 14.9097 175.17 14.4419Z" fill="#373C22"/>
</svg>
