<svg width="36" height="36" viewBox="0 0 36 36" fill="none" xmlns="http://www.w3.org/2000/svg">
<path fill-rule="evenodd" clip-rule="evenodd" d="M6.43934 6.43934C6.72064 6.15804 7.10217 6 7.5 6H28.5C28.8978 6 29.2794 6.15804 29.5607 6.43934C29.842 6.72064 30 7.10218 30 7.5V22.5C30 22.8978 29.842 23.2794 29.5607 23.5607C29.2794 23.842 28.8978 24 28.5 24H10.5C10.1022 24 9.72064 24.158 9.43934 24.4393L6 27.8787V7.5C6 7.10217 6.15804 6.72064 6.43934 6.43934ZM7.5 3C6.30653 3 5.16193 3.47411 4.31802 4.31802C3.47411 5.16193 3 6.30653 3 7.5V31.5C3 32.1067 3.36546 32.6536 3.92597 32.8858C4.48649 33.118 5.13166 32.9897 5.56066 32.5607L11.1213 27H28.5C29.6935 27 30.8381 26.5259 31.682 25.682C32.5259 24.8381 33 23.6935 33 22.5V7.5C33 6.30652 32.5259 5.16193 31.682 4.31802C30.8381 3.47411 29.6935 3 28.5 3H7.5ZM23.7516 10.5H22.7496C22.6441 10.5 22.5602 10.543 22.4977 10.6289C22.4195 10.957 22.2789 11.2207 22.0758 11.4199C21.8531 11.6309 21.5797 11.7461 21.2555 11.7656C21.1695 11.7656 21.0973 11.7949 21.0387 11.8535C20.9801 11.916 20.9508 11.9883 20.9508 12.0703V12.9375C20.9508 13.0195 20.9801 13.0918 21.0387 13.1543C21.0973 13.2129 21.1695 13.2422 21.2555 13.2422H22.1754V18.2285C22.1754 18.3105 22.2047 18.3809 22.2633 18.4395C22.3219 18.498 22.3941 18.5273 22.4801 18.5273H23.7516C23.8336 18.5273 23.9039 18.498 23.9625 18.4395C24.0211 18.3809 24.0504 18.3105 24.0504 18.2285V10.7988C24.0504 10.7168 24.0211 10.6465 23.9625 10.5879C23.9039 10.5293 23.8336 10.5 23.7516 10.5ZM16.7567 17.2324C16.7567 16.9668 16.8505 16.7383 17.038 16.5469C17.2294 16.3594 17.4579 16.2656 17.7235 16.2656C17.9891 16.2656 18.2177 16.3594 18.4091 16.5469C18.5966 16.7383 18.6903 16.9668 18.6903 17.2324C18.6903 17.502 18.5966 17.7305 18.4091 17.918C18.2177 18.1055 17.9891 18.1992 17.7235 18.1992C17.4579 18.1992 17.2294 18.1055 17.038 17.918C16.8505 17.7305 16.7567 17.502 16.7567 17.2324ZM16.7567 12.9668C16.7567 12.7012 16.8505 12.4727 17.038 12.2812C17.2294 12.0938 17.4579 12 17.7235 12C17.9891 12 18.2177 12.0938 18.4091 12.2812C18.5966 12.4727 18.6903 12.7012 18.6903 12.9668C18.6903 13.2324 18.5966 13.4609 18.4091 13.6523C18.2177 13.8398 17.9891 13.9336 17.7235 13.9336C17.4579 13.9336 17.2294 13.8398 17.038 13.6523C16.8505 13.4609 16.7567 13.2324 16.7567 12.9668ZM13.5938 10.5H12.5918C12.4863 10.5 12.4023 10.543 12.3398 10.6289C12.2617 10.957 12.1211 11.2207 11.918 11.4199C11.6953 11.6309 11.4219 11.7461 11.0977 11.7656C11.0117 11.7656 10.9395 11.7949 10.8809 11.8535C10.8223 11.916 10.793 11.9883 10.793 12.0703V12.9375C10.793 13.0195 10.8223 13.0918 10.8809 13.1543C10.9395 13.2129 11.0117 13.2422 11.0977 13.2422H12.0176V18.2285C12.0176 18.3105 12.0469 18.3809 12.1055 18.4395C12.1641 18.498 12.2363 18.5273 12.3223 18.5273H13.5938C13.6758 18.5273 13.7461 18.498 13.8047 18.4395C13.8633 18.3809 13.8926 18.3105 13.8926 18.2285V10.7988C13.8926 10.7168 13.8633 10.6465 13.8047 10.5879C13.7461 10.5293 13.6758 10.5 13.5938 10.5Z" fill="#373C22"/>
</svg>
