<svg xmlns="http://www.w3.org/2000/svg" width="24" height="24" fill="none" viewBox="0 0 24 24"><path fill="#EFE8E1" fill-rule="evenodd" d="M4.293 4.293A1 1 0 0 1 5 4h14a1 1 0 0 1 1 1v10a1 1 0 0 1-1 1H7a1 1 0 0 0-.707.293L4 18.586V5a1 1 0 0 1 .293-.707zM5 2a3 3 0 0 0-3 3v16a1 1 0 0 0 1.707.707L7.414 18H19a3 3 0 0 0 3-3V5a3 3 0 0 0-3-3H5zm10.834 5h-.668a.197.197 0 0 0-.168.086 1.063 1.063 0 0 1-.28.527.843.843 0 0 1-.548.23.196.196 0 0 0-.144.06.205.205 0 0 0-.059.144v.578c0 .055.02.103.059.145a.195.195 0 0 0 .144.058h.614v3.324a.198.198 0 0 0 .203.2h.847c.055 0 .102-.02.141-.059a.192.192 0 0 0 .059-.14V7.198a.192.192 0 0 0-.059-.14.192.192 0 0 0-.14-.059zm-4.663 4.488a.63.63 0 0 1 .188-.457.63.63 0 0 1 .457-.187.63.63 0 0 1 .457.187.63.63 0 0 1 .187.457.62.62 0 0 1-.187.457.63.63 0 0 1-.457.188.63.63 0 0 1-.457-.188.622.622 0 0 1-.188-.457zm0-2.843a.63.63 0 0 1 .188-.457.63.63 0 0 1 .457-.188.63.63 0 0 1 .457.188.63.63 0 0 1 .187.457.63.63 0 0 1-.187.457.63.63 0 0 1-.457.187.63.63 0 0 1-.457-.187.63.63 0 0 1-.188-.457zM9.063 7h-.668a.197.197 0 0 0-.168.086 1.064 1.064 0 0 1-.282.527.843.843 0 0 1-.547.23.196.196 0 0 0-.144.06.205.205 0 0 0-.059.144v.578c0 .055.02.103.059.145a.195.195 0 0 0 .144.058h.614v3.324a.2.2 0 0 0 .203.2h.848c.054 0 .101-.02.14-.059a.192.192 0 0 0 .059-.14V7.198a.192.192 0 0 0-.059-.14.192.192 0 0 0-.14-.059z" clip-rule="evenodd"/></svg>