<svg width="48" height="48" viewBox="0 0 48 48" fill="none" xmlns="http://www.w3.org/2000/svg">
<circle cx="24" cy="24" r="18.5" stroke="#373C22" stroke-width="3"/>
<path d="M22.8918 36.72C22.3318 36.72 21.8718 36.54 21.5118 36.18C21.1718 35.84 21.0018 35.39 21.0018 34.83C21.0018 34.27 21.1718 33.82 21.5118 33.48C21.8718 33.14 22.3318 32.97 22.8918 32.97C23.4518 32.97 23.9018 33.14 24.2418 33.48C24.5818 33.82 24.7518 34.27 24.7518 34.83C24.7518 35.39 24.5818 35.84 24.2418 36.18C23.9018 36.54 23.4518 36.72 22.8918 36.72ZM16.3518 17.97C16.9118 16.49 17.8418 15.28 19.1418 14.34C20.4618 13.38 21.8718 12.9 23.3718 12.9C24.7518 12.9 25.9718 13.18 27.0318 13.74C28.0918 14.28 28.9118 15.05 29.4918 16.05C30.0718 17.05 30.3618 18.19 30.3618 19.47C30.3618 20.65 30.0418 21.79 29.4018 22.89C28.7818 23.99 27.7418 25.08 26.2818 26.16C25.7618 26.54 25.3718 26.89 25.1118 27.21C24.8718 27.53 24.7018 27.91 24.6018 28.35C24.5018 28.79 24.4618 29.39 24.4818 30.15L21.2418 30.18C21.2218 28.64 21.4518 27.36 21.9318 26.34C22.4318 25.3 23.2418 24.37 24.3618 23.55C25.4618 22.73 26.1918 22.03 26.5518 21.45C26.9318 20.85 27.1218 20.19 27.1218 19.47C27.1218 18.47 26.7718 17.66 26.0718 17.04C25.3718 16.42 24.4718 16.11 23.3718 16.11C22.5318 16.11 21.7318 16.39 20.9718 16.95C20.2318 17.49 19.6918 18.2 19.3518 19.08L16.3518 17.97Z" fill="#373C22"/>
</svg>
