<svg xmlns="http://www.w3.org/2000/svg" width="60" height="60" fill="none" viewBox="0 0 60 60"><rect width="13" height="25" x="5.5" y="27.5" stroke="#676767" stroke-width="3" rx="2.5"/><rect width="9" height="9" x="1.5" y="-1.5" stroke="#676767" stroke-width="3" rx="2.5" transform="matrix(1 0 0 -1 6 26)"/><rect width="13" height="36" x="23.5" y="16.5" stroke="#676767" stroke-width="3" rx="2.5"/><path stroke="#676767" stroke-width="3" d="M25.5 14a2.5 2.5 0 0 0 2.5 2.5h4a2.5 2.5 0 0 0 2.5-2.5v-4A2.5 2.5 0 0 0 32 7.5h-4a2.5 2.5 0 0 0-2.5 2.5v4z"/><rect width="9" height="9" x="-1.5" y="1.5" stroke="#676767" stroke-width="3" rx="2.5" transform="matrix(-1 0 0 1 51 42)"/><path stroke="#676767" stroke-width="3" d="M54.219 19.166l-1.467 22a2.5 2.5 0 0 1-2.494 2.334h-4.516a2.5 2.5 0 0 1-2.494-2.334l-1.467-22a2.5 2.5 0 0 1 2.495-2.666h7.448a2.5 2.5 0 0 1 2.495 2.666z"/></svg>