<svg xmlns="http://www.w3.org/2000/svg" width="24" height="24" fill="none" viewBox="0 0 24 24"><path fill="#898989" fill-rule="evenodd" d="M19 5.618a1.618 1.618 0 1 1-3.237 0 1.618 1.618 0 0 1 3.237 0zm2 0a3.618 3.618 0 0 1-6.065 2.666l-4.89 2.813a3.63 3.63 0 0 1-.002 1.714l4.833 2.861a3.618 3.618 0 1 1-1.004 1.73l-4.825-2.856a3.618 3.618 0 1 1 .006-5.186l4.839-2.784A3.622 3.622 0 0 1 17.382 2 3.618 3.618 0 0 1 21 5.618zM8.146 11.95a1.618 1.618 0 1 1-3.237 0 1.618 1.618 0 0 1 3.237 0zm9.236 7.95a1.618 1.618 0 1 0 0-3.236 1.618 1.618 0 0 0 0 3.236z" clip-rule="evenodd"/></svg>