<svg xmlns="http://www.w3.org/2000/svg" width="60" height="60" fill="none" viewBox="0 0 60 60"><path stroke="#676767" stroke-linecap="round" stroke-linejoin="round" stroke-width="3" d="M47.508 47.209c.498-.024.965-.047 1.401-.07 2.669-.142 4.805-2.152 5.055-4.81.287-3.047.591-7.513.638-13.03.008-.96-.187-1.915-.635-2.764-1.16-2.201-3.878-6.672-7.965-9.368-.865-.57-1.89-.82-2.925-.855-2.972-.1-6.246-.173-9.578-.228M5.408 31.172c-.012.633-.017 1.274-.017 1.917 0 4.097.246 7.33.514 9.63.288 2.48 2.32 4.264 4.814 4.4.54.03 1.13.06 1.773.091"/><path stroke="#676767" stroke-linecap="round" stroke-linejoin="round" stroke-width="3" d="M42.112 22.007c2.556 1.45 4.42 4.242 5.51 6.267.669 1.242-.09 2.697-1.497 2.818a23.958 23.958 0 0 1-4.924-.109c-1.078-.133-1.826-1.072-1.826-2.158v-5.13a1.899 1.899 0 0 1 1.898-1.897c.293 0 .584.063.84.209z" clip-rule="evenodd"/><path stroke="#676767" stroke-linecap="round" stroke-linejoin="round" stroke-width="3" d="M33.516 31.172H5.39v-12.89c0-3.49.11-6.168.241-8.122.168-2.495 2.092-4.377 4.588-4.527 2.157-.129 5.2-.242 9.233-.242 4.034 0 7.076.113 9.232.242 2.497.15 4.422 2.032 4.59 4.528.13 1.953.24 4.632.24 8.12v12.89zm-8.23 16.383c3.143.031 6.287.031 9.43 0"/><path stroke="#676767" stroke-linecap="round" stroke-linejoin="round" stroke-width="3" d="M34.688 48.164a6.445 6.445 0 1 0 12.89 0 6.445 6.445 0 0 0-12.89 0zm-22.266 0a6.445 6.445 0 1 0 12.89 0 6.445 6.445 0 0 0-12.89 0z"/></svg>