<svg width="48" height="48" viewBox="0 0 48 48" fill="none" xmlns="http://www.w3.org/2000/svg">
<path d="M38.0062 37.7672C38.4046 37.7484 38.7787 37.7297 39.1274 37.7109C41.2621 37.5975 42.9712 35.9897 43.1709 33.8625C43.4006 31.4259 43.6443 27.8531 43.6818 23.4394C43.6884 22.6706 43.5318 21.9075 43.1737 21.2278C42.2456 19.4672 40.0715 15.8906 36.8015 13.7334C36.1096 13.2778 35.2903 13.0781 34.4615 13.05C32.084 12.9703 29.4646 12.9112 26.7993 12.8672" stroke="#373C22" stroke-width="3" stroke-linecap="round" stroke-linejoin="round"/>
<path d="M4.32656 24.9375C4.31719 25.4438 4.3125 25.9566 4.3125 26.4713C4.3125 29.7488 4.50937 32.3353 4.72406 34.1747C4.95469 36.1594 6.58031 37.5863 8.57531 37.6959C9.00656 37.7194 9.47906 37.7438 9.99375 37.7681" stroke="#373C22" stroke-width="3" stroke-linecap="round" stroke-linejoin="round"/>
<path fill-rule="evenodd" clip-rule="evenodd" d="M33.69 17.6054C35.7347 18.765 37.2253 20.9991 38.0981 22.6191C38.6325 23.6129 38.025 24.7772 36.9 24.8738C35.3625 25.0069 33.9534 24.9094 32.9606 24.7866C32.0981 24.6797 31.5 23.9288 31.5 23.0597V18.9563C31.5002 18.5537 31.6604 18.1676 31.9452 17.883C32.23 17.5984 32.6161 17.4385 33.0187 17.4385C33.2531 17.4385 33.4856 17.4891 33.69 17.6054Z" stroke="#373C22" stroke-width="3" stroke-linecap="round" stroke-linejoin="round"/>
<path d="M26.8125 24.9375H15.5625H4.3125V14.625C4.3125 11.8341 4.40063 9.69094 4.50563 8.12813C4.63969 6.13219 6.17906 4.62656 8.17594 4.50656C9.90188 4.40344 12.3356 4.3125 15.5625 4.3125C18.7894 4.3125 21.2231 4.40344 22.9481 4.50656C24.9459 4.62656 26.4853 6.13219 26.6194 8.12906C26.7244 9.69094 26.8125 11.8341 26.8125 14.625V24.9375Z" stroke="#373C22" stroke-width="3" stroke-linecap="round" stroke-linejoin="round"/>
<path d="M20.2285 38.0437C22.7435 38.0689 25.2586 38.0689 27.7735 38.0437" stroke="#373C22" stroke-width="3" stroke-linecap="round" stroke-linejoin="round"/>
<path d="M27.75 38.5312C27.75 39.8988 28.2932 41.2103 29.2602 42.1773C30.2272 43.1443 31.5387 43.6875 32.9062 43.6875C34.2738 43.6875 35.5853 43.1443 36.5523 42.1773C37.5193 41.2103 38.0625 39.8988 38.0625 38.5312C38.0625 37.1637 37.5193 35.8522 36.5523 34.8852C35.5853 33.9182 34.2738 33.375 32.9062 33.375C31.5387 33.375 30.2272 33.9182 29.2602 34.8852C28.2932 35.8522 27.75 37.1637 27.75 38.5312Z" stroke="#373C22" stroke-width="3" stroke-linecap="round" stroke-linejoin="round"/>
<path d="M9.9375 38.5312C9.9375 39.2084 10.0709 39.8789 10.33 40.5045C10.5891 41.13 10.9689 41.6985 11.4477 42.1773C11.9265 42.6561 12.495 43.0359 13.1205 43.295C13.7461 43.5541 14.4166 43.6875 15.0938 43.6875C15.7709 43.6875 16.4414 43.5541 17.067 43.295C17.6925 43.0359 18.261 42.6561 18.7398 42.1773C19.2186 41.6985 19.5984 41.13 19.8575 40.5045C20.1166 39.8789 20.25 39.2084 20.25 38.5312C20.25 37.1637 19.7068 35.8522 18.7398 34.8852C17.7728 33.9182 16.4613 33.375 15.0938 33.375C13.7262 33.375 12.4147 33.9182 11.4477 34.8852C10.4807 35.8522 9.9375 37.1637 9.9375 38.5312Z" stroke="#373C22" stroke-width="3" stroke-linecap="round" stroke-linejoin="round"/>
</svg>
