<svg width="18" height="18" viewBox="0 0 18 18" fill="none" xmlns="http://www.w3.org/2000/svg">
<path d="M8.30069 1.80432C8.5482 1.1657 9.4518 1.1657 9.69931 1.80432L11.1 5.41817C11.2064 5.69273 11.4636 5.87961 11.7576 5.89598L15.6274 6.11133C16.3112 6.14938 16.5905 7.00876 16.0596 7.4415L13.0554 9.89033C12.8272 10.0764 12.729 10.3788 12.8042 10.6634L13.7953 14.4104C13.9704 15.0725 13.2394 15.6036 12.6638 15.2325L9.40644 13.1321C9.15897 12.9725 8.84102 12.9725 8.59356 13.1321L5.33624 15.2325C4.76063 15.6036 4.0296 15.0725 4.20473 14.4104L5.19575 10.6634C5.27104 10.3788 5.17279 10.0764 4.94456 9.89033L1.9404 7.4415C1.40953 7.00876 1.68876 6.14938 2.3726 6.11133L6.2424 5.89598C6.5364 5.87961 6.79363 5.69273 6.90004 5.41817L8.30069 1.80432Z" fill="#DB4F00"/>
</svg>
