<svg width="48" height="48" viewBox="0 0 48 48" fill="none" xmlns="http://www.w3.org/2000/svg">
<path d="M40.5 19.5V37.5C40.5 39.0913 39.8679 40.6174 38.7426 41.7426C37.6174 42.8679 36.0913 43.5 34.5 43.5H13.5C11.9087 43.5 10.3826 42.8679 9.25736 41.7426C8.13214 40.6174 7.5 39.0913 7.5 37.5V10.5C7.5 7.2 10.2 4.5 13.5 4.5H25.53" stroke="#373C22" stroke-width="3" stroke-linecap="round" stroke-linejoin="round"/>
<path d="M16.5 34.5H31.5M16.5 25.5H31.5M16.5 16.5H19.5M25.5 4.5L40.5 19.5H28.5C27.7044 19.5 26.9413 19.1839 26.3787 18.6213C25.8161 18.0587 25.5 17.2956 25.5 16.5V4.5Z" stroke="#373C22" stroke-width="3" stroke-linecap="round" stroke-linejoin="round"/>
</svg>
