<svg width="24" height="24" viewBox="0 0 24 24" fill="none" xmlns="http://www.w3.org/2000/svg">
<path d="M19.5709 8.4884C19.41 8.30971 19.2121 8.16661 18.9905 8.06861C18.7688 7.97061 18.5284 7.91995 18.2852 7.92H14.2854V6.8C14.2854 6.05739 13.9843 5.3452 13.4485 4.8201C12.9127 4.295 12.186 4 11.4283 4C11.3222 3.99993 11.2181 4.02883 11.1277 4.08348C11.0374 4.13813 10.9644 4.21636 10.9169 4.3094L8.21842 9.6H5.14282C4.83972 9.6 4.54904 9.718 4.33472 9.92804C4.1204 10.1381 4 10.423 4 10.72V16.88C4 17.177 4.1204 17.4619 4.33472 17.672C4.54904 17.882 4.83972 18 5.14282 18H17.4281C17.8457 18.0001 18.2491 17.8509 18.5623 17.5802C18.8756 17.3095 19.0773 16.9361 19.1295 16.53L19.9866 9.81C20.017 9.57342 19.9956 9.3332 19.9239 9.10534C19.8523 8.87747 19.7319 8.66716 19.5709 8.4884ZM5.14282 10.72H7.99986V16.88H5.14282V10.72ZM18.8523 9.67L17.9952 16.39C17.9778 16.5254 17.9106 16.6498 17.8062 16.7401C17.7018 16.8303 17.5673 16.88 17.4281 16.88H9.14268V10.2923L11.7647 5.1522C12.1534 5.22843 12.503 5.43427 12.7542 5.7347C13.0054 6.03513 13.1426 6.41158 13.1425 6.8V8.48C13.1425 8.62852 13.2027 8.77096 13.3099 8.87598C13.4171 8.981 13.5624 9.04 13.7139 9.04H18.2852C18.3663 9.03997 18.4465 9.05686 18.5204 9.08954C18.5943 9.12221 18.6603 9.16993 18.7139 9.22952C18.7675 9.28911 18.8076 9.35921 18.8315 9.43516C18.8554 9.5111 18.8625 9.59116 18.8523 9.67Z" fill="#DB4F00"/>
</svg>
