<svg xmlns="http://www.w3.org/2000/svg" width="60" height="59" fill="none" viewBox="0 0 60 59"><path stroke="#676767" stroke-linecap="round" stroke-linejoin="round" stroke-width="3" d="M38.396 7.94v7.368m0 9.896v8.343m0 9.895v7.369M4.127 46.23c0 2.53 1.9 4.581 4.246 4.581h43.253c2.345 0 4.246-2.05 4.246-4.58v-8.428c-3.44-1.006-5.97-4.398-5.97-8.428 0-4.03 2.53-7.422 5.97-8.428V12.52c0-2.53-1.901-4.58-4.246-4.58H8.373c-2.345 0-4.246 2.05-4.246 4.58v8.408c3.474.981 6.037 4.391 6.037 8.447 0 4.056-2.563 7.466-6.037 8.447v8.408z"/></svg>