<svg width="48" height="48" viewBox="0 0 48 48" fill="none" xmlns="http://www.w3.org/2000/svg">
<path d="M19.5 28.125C24.5051 28.125 28.5625 24.0676 28.5625 19.0625C28.5625 14.0574 24.5051 10 19.5 10C14.4949 10 10.4375 14.0574 10.4375 19.0625C10.4375 24.0676 14.4949 28.125 19.5 28.125Z" stroke="#373C22" stroke-width="3" stroke-linecap="round" stroke-linejoin="round"/>
<path d="M34 42.625C34 38.7794 32.4723 35.0912 29.753 32.372C27.0338 29.6527 23.3456 28.125 19.5 28.125C15.6544 28.125 11.9662 29.6527 9.24695 32.372C6.52767 35.0912 5 38.7794 5 42.625" stroke="#373C22" stroke-width="3" stroke-linecap="round" stroke-linejoin="round"/>
<path d="M44.8488 11.78L43.4993 10.9923C43.5134 10.8514 43.5204 10.7098 43.5203 10.5682C43.5199 10.3736 43.5069 10.1793 43.4813 9.98648L44.8488 9.1897C44.8832 9.16984 44.9134 9.14327 44.9376 9.11155C44.9618 9.07983 44.9795 9.04358 44.9897 9.00489C45 8.96641 45.0026 8.92626 44.9974 8.88675C44.9923 8.84724 44.9795 8.80914 44.9597 8.77464L43.1964 5.69355C43.1568 5.62425 43.0917 5.57357 43.0153 5.55257C42.9389 5.53157 42.8574 5.54196 42.7885 5.58145L41.364 6.41156C41.1117 6.23961 40.8447 6.09058 40.5663 5.96621V4.30296C40.5663 4.22261 40.5347 4.14555 40.4785 4.08873C40.4222 4.03192 40.346 4 40.2664 4H36.7337C36.6542 4 36.5779 4.03192 36.5216 4.08873C36.4654 4.14555 36.4338 4.22261 36.4338 4.30296V5.96621C36.1549 6.09542 35.8879 6.24953 35.6361 6.4267L34.2116 5.5966C34.1435 5.55713 34.0627 5.54625 33.9867 5.5663C33.9484 5.57664 33.9125 5.59456 33.8811 5.619C33.8497 5.64344 33.8234 5.67392 33.8038 5.70869L32.0404 8.78979C32.0207 8.82429 32.0078 8.86239 32.0027 8.9019C31.9976 8.94141 32.0002 8.98155 32.0104 9.02004C32.0206 9.05872 32.0384 9.09498 32.0626 9.1267C32.0868 9.15842 32.1169 9.18498 32.1514 9.20485L33.5189 10.0016C33.4932 10.1945 33.4802 10.3888 33.4799 10.5833C33.4798 10.725 33.4868 10.8665 33.5009 11.0075L32.1514 11.7951C32.117 11.8149 32.0868 11.8414 32.0626 11.873C32.0385 11.9046 32.0207 11.9408 32.0104 11.9793C32.0001 12.0179 31.9974 12.0582 32.0026 12.0978C32.0077 12.1374 32.0206 12.1756 32.0404 12.2102L33.8038 15.2913C33.8234 15.3261 33.8497 15.3566 33.8811 15.381C33.9125 15.4054 33.9484 15.4234 33.9867 15.4337C34.0627 15.4537 34.1435 15.4429 34.2116 15.4034L35.5041 14.649C35.7926 14.8674 36.1045 15.0524 36.4338 15.2004V16.697C36.4338 16.7774 36.4654 16.8544 36.5216 16.9113C36.5779 16.9681 36.6542 17 36.7337 17H40.2664C40.346 17 40.4222 16.9681 40.4785 16.9113C40.5347 16.8544 40.5663 16.7774 40.5663 16.697V15.2004C40.8957 15.0524 41.2075 14.8674 41.496 14.649L42.7885 15.4034C42.8567 15.4429 42.9374 15.4537 43.0134 15.4337C43.0517 15.4234 43.0876 15.4054 43.119 15.381C43.1504 15.3566 43.1767 15.3261 43.1964 15.2913L44.9597 12.2102C44.9795 12.1757 44.9923 12.1376 44.9974 12.0981C45.0026 12.0586 45 12.0184 44.9897 11.98C44.9813 11.9385 44.9645 11.8994 44.9402 11.8649C44.9159 11.8305 44.8848 11.8016 44.8488 11.78ZM40.9742 10.4864C40.9742 10.9801 40.8292 11.4628 40.5577 11.8733C40.2862 12.2838 39.9003 12.6038 39.4487 12.7927C38.9972 12.9817 38.5003 13.0311 38.021 12.9348C37.5416 12.8385 37.1013 12.6007 36.7557 12.2516C36.4101 11.9024 36.1748 11.4576 36.0794 10.9734C35.9841 10.4891 36.033 9.9872 36.2201 9.53104C36.4071 9.07489 36.7238 8.685 37.1302 8.4107C37.5366 8.13639 38.0143 7.98998 38.5031 7.98998C39.1582 7.99078 39.7863 8.25405 40.2495 8.72204C40.7128 9.19003 40.9734 9.82453 40.9742 10.4864Z" fill="#373C22"/>
</svg>
