<svg width="772" height="176" viewBox="0 0 772 176" fill="none" xmlns="http://www.w3.org/2000/svg">
<path d="M70.99 136.16C50.35 136.16 33.37 129.8 20.05 117.08C6.85 104.24 0.25 88.04 0.25 68.48C0.25 48.44 6.79 32.18 19.87 19.7C33.07 7.1 50.05 0.799998 70.81 0.799998C79.69 0.799998 87.37 2.3 93.85 5.29999L112.93 16.1C116.53 16.1 118.93 14.9 120.13 12.5C121.33 9.97999 122.17 6.43999 122.65 1.88H126.25V58.76H123.19C117.91 44.12 114.13 34.22 111.85 29.06C109.69 23.9 106.03 18.92 100.87 14.12C95.71 9.32 89.11 6.91999 81.07 6.91999C70.63 6.91999 62.89 12.8 57.85 24.56C52.81 36.32 50.29 50.06 50.29 65.78C50.29 82.7 53.29 97.4 59.29 109.88C65.41 122.24 74.35 128.42 86.11 128.42C97.03 128.42 105.79 124.46 112.39 116.54C118.99 108.62 123.37 98.3 125.53 85.58L128.59 86.12C126.91 100.52 121.45 112.46 112.21 121.94C102.97 131.42 89.23 136.16 70.99 136.16ZM233.884 91.34C233.884 104.06 229.024 114.68 219.304 123.2C209.704 131.6 198.364 135.8 185.284 135.8C171.484 135.8 159.904 131.6 150.544 123.2C141.304 114.68 136.684 104.06 136.684 91.34C136.684 78.62 141.364 68.06 150.724 59.66C160.204 51.14 171.724 46.88 185.284 46.88C198.604 46.88 210.004 51.08 219.484 59.48C229.084 67.88 233.884 78.5 233.884 91.34ZM198.064 91.16C198.064 89.48 197.944 86.12 197.704 81.08C197.464 76.04 197.344 73.04 197.344 72.08C197.344 65.6 196.324 60.26 194.284 56.06C192.364 51.86 189.304 49.76 185.104 49.76C181.264 49.76 178.324 51.98 176.284 56.42C174.244 60.74 173.224 65.96 173.224 72.08C173.224 74.36 173.104 77.18 172.864 80.54C172.744 83.78 172.624 87.32 172.504 91.16C172.504 92.84 172.624 96.32 172.864 101.6C173.104 106.76 173.224 109.76 173.224 110.6C173.224 117.08 174.184 122.42 176.104 126.62C178.144 130.82 181.204 132.92 185.284 132.92C189.244 132.92 192.244 130.76 194.284 126.44C196.324 122.12 197.344 116.84 197.344 110.6C197.344 108.2 197.404 105.38 197.524 102.14C197.644 98.78 197.824 95.12 198.064 91.16ZM307.921 74.78L307.741 67.4C307.741 58.04 304.441 53.36 297.841 53.36C293.641 53.36 290.641 54.68 288.841 57.32C287.161 59.96 285.781 62.66 284.701 65.42V111.5L284.881 119.78C284.881 124.7 285.301 127.82 286.141 129.14C287.101 130.46 289.801 131.12 294.241 131.12V134H238.261V131.12L242.581 130.94C246.061 130.58 248.161 129.74 248.881 128.42C249.601 127.1 249.961 124.22 249.961 119.78L250.141 111.5V68.48L249.961 61.1C249.721 58.22 249.361 56.06 248.881 54.62C248.401 53.18 246.241 52.28 242.401 51.92L238.261 51.56V48.68H283.981V62.18C285.301 58.82 287.641 55.46 291.001 52.1C294.481 48.62 301.141 46.88 310.981 46.88C319.501 46.88 326.881 49.28 333.121 54.08C339.361 58.88 342.481 64.52 342.481 71V111.5L342.661 119.78C342.661 124.1 343.021 126.98 343.741 128.42C344.461 129.74 346.561 130.58 350.041 130.94L354.001 131.12V134H298.381V131.12C302.701 131.12 305.341 130.46 306.301 129.14C307.261 127.7 307.741 124.58 307.741 119.78L307.921 111.5V74.78ZM410.758 49.76C407.398 49.76 404.578 51.08 402.298 53.72C400.018 56.36 398.218 59.6 396.898 63.44C395.698 67.28 394.798 71.48 394.198 76.04C393.718 80.48 393.478 84.8 393.478 89C393.478 99.92 395.278 109.46 398.878 117.62C402.598 125.66 409.078 129.68 418.318 129.68C424.918 129.68 430.678 127.64 435.598 123.56C440.518 119.36 444.238 114.08 446.758 107.72L449.458 109.16C441.418 126.92 427.018 135.8 406.258 135.8C392.578 135.8 380.938 131.78 371.338 123.74C361.738 115.58 356.938 104.84 356.938 91.52C356.938 78.08 361.618 67.28 370.978 59.12C380.458 50.96 392.218 46.88 406.258 46.88C411.538 46.88 416.398 47.48 420.838 48.68C425.278 49.76 429.418 51.32 433.258 53.36C437.218 55.28 440.938 58.1 444.418 61.82C448.018 65.42 449.818 69.68 449.818 74.6C449.818 79.04 448.438 82.64 445.678 85.4C442.918 88.04 438.838 89.36 433.438 89.36C428.758 89.36 424.498 87.74 420.658 84.5C416.938 81.14 415.078 77.36 415.078 73.16C415.078 69.92 415.738 66.8 417.058 63.8C418.378 60.8 419.038 58.28 419.038 56.24C419.038 54.32 418.318 52.76 416.878 51.56C415.438 50.36 413.398 49.76 410.758 49.76ZM543.995 107C540.635 116 535.235 123.08 527.795 128.24C520.355 133.28 511.595 135.8 501.515 135.8C487.355 135.8 475.715 131.9 466.595 124.1C457.475 116.18 452.915 105.26 452.915 91.34C452.915 78.38 457.595 67.76 466.955 59.48C476.435 51.08 487.775 46.88 500.975 46.88C514.775 46.88 525.335 50.78 532.655 58.58C539.975 66.38 543.635 75.92 543.635 87.2H488.375C488.375 91.52 488.675 95.96 489.275 100.52C489.995 104.96 491.255 109.28 493.055 113.48C494.975 117.68 497.615 121.1 500.975 123.74C504.455 126.26 508.775 127.52 513.935 127.52C521.255 127.52 527.015 125.48 531.215 121.4C535.535 117.2 538.835 111.98 541.115 105.74L543.995 107ZM512.315 83.6C512.195 82.28 512.075 80.72 511.955 78.92C511.955 77.12 511.955 74.84 511.955 72.08C511.955 64.76 511.055 59.24 509.255 55.52C507.455 51.68 504.335 49.76 499.895 49.76C496.055 49.76 493.355 51.62 491.795 55.34C490.355 58.94 489.335 64.52 488.735 72.08L488.375 83.6H512.315ZM593.364 121.58C593.844 124.58 595.164 126.86 597.324 128.42C599.604 129.98 602.124 130.76 604.884 130.76C608.604 130.76 611.364 128.96 613.164 125.36C615.084 121.76 616.284 117.8 616.764 113.48C617.244 109.16 617.544 105.32 617.664 101.96C617.904 98.6 618.024 94.94 618.024 90.98V79.28C617.664 75.8 617.244 72.2 616.764 68.48C616.404 64.64 615.264 60.98 613.344 57.5C611.424 53.9 608.484 52.1 604.524 52.1C602.124 52.1 599.784 53.18 597.504 55.34C595.344 57.38 594.024 59.9 593.544 62.9C593.304 65.78 593.124 69.56 593.004 74.24C592.884 78.8 592.824 83.36 592.824 87.92V107.72C592.824 113.24 593.004 117.86 593.364 121.58ZM543.684 175.58V172.7L549.984 172.34C553.464 171.98 555.684 171.2 556.644 170C557.604 168.92 558.084 166.64 558.084 163.16L558.264 155.78V68.48L558.084 61.1C558.084 57.74 557.544 55.46 556.464 54.26C555.504 53.06 553.284 52.28 549.804 51.92L544.044 51.56V48.68H592.464V59.3C593.784 56.54 595.884 53.78 598.764 51.02C601.764 48.26 607.344 46.88 615.504 46.88C627.024 46.88 636.384 50.9 643.584 58.94C650.784 66.98 654.384 77.9 654.384 91.7C654.384 105.02 650.784 115.7 643.584 123.74C636.384 131.78 627.024 135.8 615.504 135.8C607.104 135.8 601.524 134.66 598.764 132.38C596.004 130.1 593.964 127.7 592.644 125.18L592.824 135.8V152.9L593.184 161.18C593.544 165.26 594.324 167.96 595.524 169.28C596.844 170.72 599.364 171.68 603.084 172.16L611.724 172.7V175.58H543.684ZM668.989 55.52H656.749V50.66C660.829 49.58 665.089 47.6 669.529 44.72C673.969 41.72 678.169 38.3 682.129 34.46C686.209 30.5 689.569 26.66 692.209 22.94C694.969 19.22 697.069 15.86 698.509 12.86H703.549V48.68H727.129L724.609 55.52H703.549V104.48L703.909 113.66C703.909 118.82 705.049 122.72 707.329 125.36C709.609 128 712.489 129.32 715.969 129.32C720.649 129.32 724.069 127.4 726.229 123.56C728.389 119.6 729.469 115.22 729.469 110.42H731.989C731.989 117.14 730.009 123.08 726.049 128.24C722.089 133.28 713.569 135.8 700.489 135.8C692.209 135.8 684.889 133.64 678.529 129.32C672.169 125 668.989 118.94 668.989 111.14V55.52ZM736.187 117.98C736.187 113.18 737.927 109.1 741.407 105.74C744.887 102.38 749.087 100.7 754.007 100.7C758.927 100.7 763.127 102.38 766.607 105.74C770.207 108.98 772.007 113.06 772.007 117.98C772.007 122.9 770.267 127.04 766.787 130.4C763.307 133.76 759.047 135.44 754.007 135.44C749.087 135.44 744.887 133.76 741.407 130.4C737.927 127.04 736.187 122.9 736.187 117.98Z" fill="#676767"/>
</svg>
