<svg width="843" height="174" viewBox="0 0 843 174" fill="none" xmlns="http://www.w3.org/2000/svg">
<path d="M69.6521 70.8L64.7921 76.56V109.5L65.1521 117.78C65.5121 121.74 66.2921 124.44 67.4921 125.88C68.8121 127.2 71.3321 128.1 75.0521 128.58L81.5321 129.12V132H1.25211V129.12L10.2521 128.4C13.7321 127.92 16.1321 126.9 17.4521 125.34C18.8921 123.78 19.7921 121.14 20.1521 117.42L20.5121 109.14V23.64L20.1521 15.36C19.7921 11.52 18.9521 8.88 17.6321 7.43999C16.4321 5.87999 13.9721 4.85999 10.2521 4.37999L0.89211 3.65999V0.779994H82.0721V3.65999L75.0521 4.19999C71.3321 4.56 68.8121 5.45999 67.4921 6.89999C66.2921 8.22 65.5121 10.92 65.1521 15L64.7921 23.28V71.88C68.2721 67.8 73.1321 62.16 79.3721 54.96C85.6121 47.76 91.9721 40.38 98.4521 32.82C105.052 25.14 109.432 19.8 111.592 16.8C113.872 13.68 115.012 11.16 115.012 9.23999C115.012 7.55999 114.352 6.35999 113.032 5.64C111.832 4.92 110.152 4.44 107.992 4.19999L99.5321 3.65999V0.779994H145.252V3.65999C143.692 3.77999 142.072 3.9 140.392 4.02C138.712 4.02 136.672 4.26 134.272 4.74C131.872 5.22 129.352 6.18 126.712 7.61999C124.192 9.05999 121.192 11.7 117.712 15.54L99.7121 36.24L148.852 112.2C153.412 119.04 156.712 123.3 158.752 124.98C160.792 126.66 163.012 127.74 165.412 128.22C167.812 128.58 169.612 128.82 170.812 128.94C172.132 128.94 173.272 129 174.232 129.12V132H87.6521V129.12L95.2121 128.76C97.7321 128.52 99.5921 128.16 100.792 127.68C101.992 127.2 102.592 126.06 102.592 124.26C102.592 123.18 102.292 121.86 101.692 120.3C101.092 118.62 99.7121 116.16 97.5521 112.92C95.3921 109.56 92.9321 105.84 90.1721 101.76C87.5321 97.56 83.9321 92.16 79.3721 85.56C74.9321 78.84 71.6921 73.92 69.6521 70.8ZM255.887 105C252.527 114 247.127 121.08 239.687 126.24C232.247 131.28 223.487 133.8 213.407 133.8C199.247 133.8 187.607 129.9 178.487 122.1C169.367 114.18 164.807 103.26 164.807 89.34C164.807 76.38 169.487 65.76 178.847 57.48C188.327 49.08 199.667 44.88 212.867 44.88C226.667 44.88 237.227 48.78 244.547 56.58C251.867 64.38 255.527 73.92 255.527 85.2H200.267C200.267 89.52 200.567 93.96 201.167 98.52C201.887 102.96 203.147 107.28 204.947 111.48C206.867 115.68 209.507 119.1 212.867 121.74C216.347 124.26 220.667 125.52 225.827 125.52C233.147 125.52 238.907 123.48 243.107 119.4C247.427 115.2 250.727 109.98 253.007 103.74L255.887 105ZM224.207 81.6C224.087 80.28 223.967 78.72 223.847 76.92C223.847 75.12 223.847 72.84 223.847 70.08C223.847 62.76 222.947 57.24 221.147 53.52C219.347 49.68 216.227 47.76 211.787 47.76C207.947 47.76 205.247 49.62 203.687 53.34C202.247 56.94 201.227 62.52 200.627 70.08L200.267 81.6H224.207ZM268.537 58.92C267.097 55.92 265.897 53.82 264.937 52.62C263.977 51.3 262.717 50.46 261.157 50.1L254.137 49.56V46.68H312.997V49.56H310.297C309.337 49.56 308.077 49.74 306.517 50.1C305.077 50.34 304.357 51.54 304.357 53.7C304.357 54.66 304.597 55.92 305.077 57.48C305.557 58.92 306.037 60.36 306.517 61.8L320.557 95.28C321.757 92.4 323.677 87.72 326.317 81.24C328.957 74.64 331.057 69.06 332.617 64.5C334.177 59.94 334.957 56.64 334.957 54.6C334.957 53.04 334.657 51.96 334.057 51.36C333.577 50.76 332.137 50.28 329.737 49.92L323.977 49.56V46.68H354.037V49.56C353.317 49.56 352.537 49.62 351.697 49.74C350.977 49.74 349.537 49.92 347.377 50.28C345.337 50.64 343.597 51.72 342.157 53.52C340.717 55.32 338.017 61.2 334.057 71.16C330.217 81.12 326.017 91.68 321.457 102.84C317.017 114 311.977 125.58 306.337 137.58C300.817 149.58 295.597 158.58 290.677 164.58C285.877 170.58 279.397 173.58 271.237 173.58C266.437 173.58 261.997 171.96 257.917 168.72C253.957 165.48 251.977 161.28 251.977 156.12C251.977 151.32 253.597 147.24 256.837 143.88C260.077 140.52 264.217 138.84 269.257 138.84C274.417 138.84 278.437 140.34 281.317 143.34C284.197 146.34 285.637 149.88 285.637 153.96C285.637 158.04 284.497 161.34 282.217 163.86C279.937 166.38 278.797 167.88 278.797 168.36C279.877 168.24 281.017 168.12 282.217 168C284.857 166.8 287.377 164.52 289.777 161.16C292.297 157.8 294.517 154.32 296.437 150.72C298.357 147.12 300.397 142.86 302.557 137.94C299.917 131.7 296.617 124.02 292.657 114.9C288.817 105.66 284.497 95.52 279.697 84.48C275.017 73.44 271.297 64.92 268.537 58.92ZM421.164 69.36L417.384 58.92C416.424 56.52 415.524 54.54 414.684 52.98C413.844 51.3 412.524 50.28 410.724 49.92L406.764 49.56V46.68H461.844V49.56H459.144C458.184 49.56 456.864 49.74 455.184 50.1C453.504 50.46 452.664 51.9 452.664 54.42C452.664 55.26 452.724 56.1 452.844 56.94C452.964 57.78 453.564 60.06 454.644 63.78C455.844 67.38 457.704 72.78 460.224 79.98C462.744 87.18 464.784 92.88 466.344 97.08L478.764 64.68C480.324 60 481.104 56.64 481.104 54.6C481.104 52.8 480.684 51.66 479.844 51.18C479.004 50.7 477.864 50.34 476.424 50.1C474.984 49.86 473.724 49.74 472.644 49.74C471.684 49.62 470.724 49.56 469.764 49.56V46.68H499.824V49.56L493.344 50.28C489.744 50.88 486.384 55.02 483.264 62.7L456.624 132.72H443.664L422.784 73.68L399.564 132.72H386.784C384.984 127.56 383.124 122.28 381.204 116.88C379.284 111.48 375.804 101.76 370.764 87.72C365.844 73.56 362.544 64.38 360.864 60.18C359.304 55.98 358.164 53.34 357.444 52.26C356.724 51.18 355.644 50.52 354.204 50.28C352.764 49.92 351.324 49.74 349.884 49.74C348.564 49.62 347.304 49.56 346.104 49.56V46.68H402.804V49.56H401.544C401.064 49.56 399.984 49.74 398.304 50.1C396.744 50.46 395.964 51.9 395.964 54.42C395.964 55.26 396.024 56.1 396.144 56.94C396.264 57.78 396.804 59.7 397.764 62.7C398.724 65.58 400.344 70.38 402.624 77.1C404.904 83.82 407.304 90.6 409.824 97.44L421.164 69.36ZM593.882 89.34C593.882 102.06 589.022 112.68 579.302 121.2C569.702 129.6 558.362 133.8 545.282 133.8C531.482 133.8 519.902 129.6 510.542 121.2C501.302 112.68 496.682 102.06 496.682 89.34C496.682 76.62 501.362 66.06 510.722 57.66C520.202 49.14 531.722 44.88 545.282 44.88C558.602 44.88 570.002 49.08 579.482 57.48C589.082 65.88 593.882 76.5 593.882 89.34ZM558.062 89.16C558.062 87.48 557.942 84.12 557.702 79.08C557.462 74.04 557.342 71.04 557.342 70.08C557.342 63.6 556.322 58.26 554.282 54.06C552.362 49.86 549.302 47.76 545.102 47.76C541.262 47.76 538.322 49.98 536.282 54.42C534.242 58.74 533.222 63.96 533.222 70.08C533.222 72.36 533.102 75.18 532.862 78.54C532.742 81.78 532.622 85.32 532.502 89.16C532.502 90.84 532.622 94.32 532.862 99.6C533.102 104.76 533.222 107.76 533.222 108.6C533.222 115.08 534.182 120.42 536.102 124.62C538.142 128.82 541.202 130.92 545.282 130.92C549.242 130.92 552.242 128.76 554.282 124.44C556.322 120.12 557.342 114.84 557.342 108.6C557.342 106.2 557.402 103.38 557.522 100.14C557.642 96.78 557.822 93.12 558.062 89.16ZM597.719 132V129.12L602.579 128.94C606.059 128.58 608.159 127.74 608.879 126.42C609.599 125.1 609.959 122.22 609.959 117.78L610.139 109.5V66.48L609.959 59.1C609.719 56.22 609.359 54.06 608.879 52.62C608.399 51.18 606.239 50.28 602.399 49.92L597.719 49.56V46.68H644.339V61.8C645.179 59.64 646.979 56.4 649.739 52.08C652.499 47.76 658.799 45.6 668.639 45.6C674.399 45.6 679.259 47.64 683.219 51.72C687.299 55.68 689.339 60.42 689.339 65.94C689.339 71.46 687.419 76.08 683.579 79.8C679.859 83.4 675.239 85.2 669.719 85.2C665.159 85.2 661.199 83.64 657.839 80.52C654.599 77.28 652.979 73.62 652.979 69.54C652.979 66.54 653.519 63.78 654.599 61.26C655.799 58.98 656.999 56.64 658.199 54.24C657.599 53.4 656.999 52.98 656.399 52.98C653.279 52.98 650.519 54.84 648.119 58.56C645.839 62.28 644.699 65.76 644.699 69V110.58L644.879 119.58C644.879 122.94 645.299 125.22 646.139 126.42C646.979 127.62 649.079 128.4 652.439 128.76L657.839 129.12V132H597.719ZM752.468 59.1C751.988 56.1 750.668 53.82 748.508 52.26C746.348 50.7 743.828 49.92 740.948 49.92C737.228 49.92 734.408 51.72 732.488 55.32C730.688 58.8 729.488 62.82 728.888 67.38C728.408 71.82 728.108 75.9 727.988 79.62C727.868 83.22 727.808 86.58 727.808 89.7V97.8C727.808 100.08 728.048 104.04 728.528 109.68C729.128 115.32 730.328 119.94 732.128 123.54C734.048 127.14 736.928 128.94 740.768 128.94C747.368 128.94 751.208 125.76 752.288 119.4C752.528 116.64 752.708 111.78 752.828 104.82C752.948 97.74 753.008 92.46 753.008 88.98V72.42C753.008 67.38 752.828 62.94 752.468 59.1ZM753.008 46.14V23.1L752.648 14.82C752.648 10.86 752.048 8.22 750.848 6.89999C749.648 5.57999 747.068 4.67999 743.108 4.19999L734.648 3.65999V0.779994H787.568V112.2L787.748 119.58C787.748 122.82 788.288 125.1 789.368 126.42C790.568 127.62 792.788 128.4 796.028 128.76L801.788 129.12V132H753.368V123C752.048 125.4 749.888 127.8 746.888 130.2C744.008 132.6 738.488 133.8 730.328 133.8C718.808 133.8 709.448 129.78 702.248 121.74C695.048 113.7 691.448 102.78 691.448 88.98C691.448 75.66 695.048 64.98 702.248 56.94C709.448 48.9 718.808 44.88 730.328 44.88C738.728 44.88 744.308 46.02 747.068 48.3C749.828 50.58 751.868 52.98 753.188 55.5L753.008 46.14ZM807.025 115.98C807.025 111.18 808.765 107.1 812.245 103.74C815.725 100.38 819.925 98.7 824.845 98.7C829.765 98.7 833.965 100.38 837.445 103.74C841.045 106.98 842.845 111.06 842.845 115.98C842.845 120.9 841.105 125.04 837.625 128.4C834.145 131.76 829.885 133.44 824.845 133.44C819.925 133.44 815.725 131.76 812.245 128.4C808.765 125.04 807.025 120.9 807.025 115.98Z" fill="#676767"/>
</svg>
