<svg width="671" height="93" viewBox="0 0 671 93" fill="none" xmlns="http://www.w3.org/2000/svg">
<path d="M70.1318 71.6686C67.5373 78.0628 63.3839 83.0599 57.6598 86.6815C51.9357 90.3031 45.1878 92.1085 37.4277 92.1085C26.5263 92.1085 17.5562 89.3144 10.5291 83.737C3.50193 78.1595 0 70.422 0 60.546C0 51.3469 3.62991 43.7814 10.8781 37.86C18.1379 31.9387 26.8404 28.9834 37.0088 28.9834C47.631 28.9834 55.7634 31.756 61.406 37.2905C67.0487 42.8249 69.8642 49.606 69.8642 57.6122L27.3756 57.6122C27.3756 60.6749 27.6315 63.8129 28.1318 67.0046C28.6321 70.1963 29.5977 73.2913 31.0171 76.2681C32.4365 79.2557 34.4493 81.6629 37.067 83.4898C39.6731 85.3275 42.9074 86.1334 46.8398 86.1334C52.4941 86.1334 58.4625 83.5973 61.9179 80.8139C67.4326 76.3648 70.1318 71.6686 70.1318 71.6686ZM42.0116 44.813C44.7689 41.4171 44.6758 37.7311 43.303 35.0552C41.9301 32.3686 39.2891 31.0252 35.9036 31.0252C31.9362 31.0252 29.7374 32.5405 28.5972 35.1412C27.457 37.7418 27.5268 42.2339 27.3756 46.8764C27.2243 51.5081 27.3756 55.0545 27.3756 55.0545C27.3756 55.0545 35.4615 52.8944 42.0116 44.813Z" fill="#373C22"/>
<path d="M371.856 71.6686C369.262 78.0628 365.108 83.0599 359.384 86.6815C353.66 90.3031 346.912 92.1085 339.152 92.1085C328.251 92.1085 319.281 89.3144 312.254 83.737C305.227 78.1595 301.725 70.422 301.725 60.546C301.725 51.3469 305.355 43.7814 312.603 37.86C319.863 31.9387 328.565 28.9834 338.733 28.9834C349.356 28.9834 357.488 31.756 363.131 37.2905C368.773 42.8249 371.589 49.606 371.589 57.6122L329.112 57.6122C329.112 60.6749 329.368 63.8129 329.868 67.0046C330.368 70.1963 331.334 73.2913 332.753 76.2681C334.173 79.2557 336.185 81.6629 338.803 83.4898C341.409 85.3275 344.644 86.1334 348.576 86.1334C354.23 86.1334 360.199 83.5973 363.654 80.8139C369.157 76.3648 371.856 71.6686 371.856 71.6686ZM343.736 44.813C346.493 41.4171 346.4 37.7311 345.028 35.0552C343.655 32.3686 341.014 31.0252 337.628 31.0252C333.661 31.0252 331.462 32.5405 330.322 35.1412C329.182 37.7418 329.251 42.2339 329.1 46.8764C328.949 51.5081 329.1 55.0545 329.1 55.0545C329.1 55.0545 337.186 52.8944 343.736 44.813Z" fill="#373C22"/>
<path d="M596.818 71.6686C594.224 78.0628 590.07 83.0599 584.346 86.6815C578.622 90.3031 571.874 92.1085 564.114 92.1085C553.213 92.1085 544.243 89.3144 537.216 83.737C530.188 78.1595 526.687 70.422 526.687 60.546C526.687 51.3469 530.316 43.7814 537.565 37.86C544.824 31.9387 553.527 28.9834 563.695 28.9834C574.318 28.9834 582.45 31.756 588.093 37.2905C593.735 42.8249 596.551 49.606 596.551 57.6122L554.074 57.6122C554.074 60.6749 554.33 63.8129 554.83 67.0046C555.33 70.1963 556.296 73.2913 557.715 76.2681C559.135 79.2557 561.147 81.6629 563.765 83.4898C566.371 85.3275 569.606 86.1334 573.538 86.1334C579.192 86.1334 585.161 83.5973 588.616 80.8139C594.119 76.3648 596.818 71.6686 596.818 71.6686ZM568.698 44.813C571.455 41.4171 571.362 37.7311 569.99 35.0552C568.617 32.3686 565.976 31.0252 562.59 31.0252C558.623 31.0252 556.424 32.5405 555.284 35.1412C554.144 37.7418 554.213 42.2339 554.062 46.8764C553.911 51.5081 554.062 55.0545 554.062 55.0545C554.062 55.0545 562.148 52.8944 568.698 44.813Z" fill="#373C22"/>
<path d="M117.914 31.8527C115.622 30.7566 112.074 30.3697 108.956 32.0139C104.919 34.1417 104.058 38.1394 103.965 41.1807C103.871 44.3939 103.848 55.9142 103.848 58.891C103.848 66.6392 104.942 73.7534 108.502 79.1482C111.562 83.7692 116.46 86.875 123.592 86.875C128.676 86.875 134.47 84.7471 138.472 82.0605C142.998 79.0085 147.43 73.2054 147.43 73.2054C141.241 85.811 130.153 92.1193 114.168 92.1193C103.627 92.1193 94.6687 89.2392 87.2809 83.4898C79.8931 77.7404 76.1934 70.1319 76.1934 60.6749C76.1934 51.132 79.8233 43.4697 87.0715 37.6773C94.3313 31.885 103.36 28.9834 114.168 28.9834C118.228 28.9834 121.974 29.3918 125.395 30.1978C128.815 31.0037 132.027 32.1106 135.028 33.5184C138.03 34.9262 140.892 36.9251 143.626 39.5257C146.348 42.1264 147.721 46.8119 147.721 50.3045C147.721 53.4532 147.721 60.0086 147.721 60.0086C147.721 60.288 136.331 60.1376 135.261 60.0086C131.317 59.525 127.187 58.128 124.418 55.3446C123.045 53.9583 122.021 52.3034 121.346 50.5302C121.125 49.9606 120.951 49.3696 120.834 48.7785C120.369 46.511 120.299 44.1575 120.858 42.3306C121.137 41.4279 121.823 39.1389 121.823 37.6988C121.823 35.3561 120.078 32.8844 117.914 31.8527Z" fill="#373C22"/>
<path d="M227.661 60.546C227.661 69.573 223.949 77.0956 216.527 83.1029C209.104 89.1102 200.366 92.1085 190.314 92.1085C179.704 92.1085 170.827 89.1102 163.683 83.1029C156.54 77.0956 152.957 69.5838 152.957 60.546C152.957 51.5189 156.575 43.9963 163.811 37.989C171.048 31.9817 179.878 28.9834 190.303 28.9834C200.541 28.9834 209.325 31.9709 216.655 37.9245C223.996 43.8996 227.661 51.4329 227.661 60.546ZM199.575 46.8764C199.575 42.2769 200.25 38.6983 198.726 35.7107C197.202 32.7339 193.397 31.0252 190.163 31.0252C187.208 31.0252 183.532 32.6372 181.961 35.743C180.39 38.8487 181.03 42.524 181.03 46.8764C181.03 48.4991 181.03 73.6245 181.03 74.2263C181.03 78.8258 180.646 82.5763 182.159 85.5531C183.683 88.5407 187.161 90.0774 190.291 90.0774C193.339 90.0774 196.946 88.5407 198.505 85.4779C200.076 82.4151 199.552 78.6646 199.552 74.2263C199.575 72.5176 199.575 47.5641 199.575 46.8764Z" fill="#373C22"/>
<path d="M452.029 90.8405C452.029 90.8405 456.554 89.9377 459.37 86.0797C460.022 85.1985 461.325 83.1567 461.429 80.7387L461.569 74.8604C461.569 74.8604 461.569 49.058 461.569 44.3187C461.569 38.2255 460.452 36.2696 458.846 34.3137C456.124 31.0038 452.017 30.2623 452.017 30.2623L487.99 30.2623V40.9981C488.619 39.4613 489.608 37.2153 492.179 34.4749C495.215 31.2402 498.973 29.4993 506.536 29.4993C510.968 29.4993 516.308 30.9286 519.391 33.7764C522.475 36.635 524.022 40.0201 524.022 43.9319C524.022 47.8543 522.568 51.1105 519.659 53.7112C516.751 56.3119 511.596 57.6122 507.35 57.6122C503.848 57.6122 497.565 57.6122 497.565 57.6122C497.565 57.6122 497.565 54.313 497.565 52.2067C497.565 50.1004 497.659 45.2752 497.926 43.3408C498.473 39.3431 502.033 37.6344 501.603 35.9902C501.195 34.4212 498.752 34.1525 498.287 34.1525C495.902 34.1525 492.656 36.0547 490.899 38.6983C489.142 41.3419 488.258 43.8136 488.258 46.1134V75.6341L488.398 80.3089C488.398 82.6946 489.98 85.5747 491.481 87.1222C494.68 90.4213 498.217 90.8405 498.217 90.8405H452.029Z" fill="#373C22"/>
<path d="M644.216 52.2066C644.216 54.3237 644.216 57.6121 644.216 57.6121C644.216 57.6121 650.499 57.6121 654.001 57.6121C658.247 57.6121 663.518 56.3118 666.426 53.7112C669.335 51.1105 670.789 47.8543 670.789 43.9318C670.789 40.0093 669.242 36.6242 666.159 33.7763C663.064 30.9178 657.607 29.4992 653.186 29.4992C650.138 29.4992 645.403 30.1225 641.68 31.8097C637.794 33.5614 635.002 36.377 635.002 36.377V0C635.002 0 630.918 10.6606 617.923 21.5253C606.312 31.2294 590.245 35.1197 590.245 35.1197H608.301V74.6024C608.301 80.1369 610.756 84.4462 615.677 87.509C620.599 90.5717 626.253 92.1085 632.652 92.1085C642.646 92.1085 649.161 90.3031 652.186 86.6815C655.211 83.0599 656.723 78.8688 656.723 74.0973C656.723 74.0973 655.816 79.2557 653.745 82.5226C652.011 85.2522 648.056 87.5197 644.484 87.5197C641.831 87.5197 639.632 86.5848 637.887 84.7041C636.142 82.8342 635.281 80.0616 635.281 76.3971L635.002 69.8847C635.002 69.8847 635.002 49.7672 635.002 45.4148C635.002 41.5891 638.492 36.7961 640.691 35.571C642.157 34.7543 643.495 34.1417 645.554 34.2384C646.997 34.3137 648.277 34.8832 648.428 36.2588C648.579 37.6343 645.322 38.4188 644.577 44.5766C644.333 46.511 644.216 50.0896 644.216 52.2066Z" fill="#373C22"/>
<path d="M288.345 39.9341C283.331 32.6372 273.931 28.9834 264.798 28.9834C257.328 28.9834 251.011 30.7028 245.845 34.1632C240.68 37.6129 238.097 42.4918 238.097 48.8C238.097 51.7016 238.76 54.2485 240.098 56.4623C241.436 58.6761 243.321 60.6642 245.775 62.4051C248.219 64.1568 251.267 65.9407 254.908 67.7676C258.55 69.6053 261.761 71.2602 264.518 72.754C267.287 74.2478 269.312 75.6341 270.603 76.9022C271.895 78.181 273.139 79.707 273.174 82.759C273.198 85.4672 271.767 87.0899 270.301 87.9711C268.555 89.0135 266.706 89.2714 264.402 89.2714C260.342 89.2714 256.083 88.4547 252.582 87.2511C248.987 86.0152 246.008 84.2205 243.379 81.6199C238.201 76.5153 236.829 69.7235 236.829 69.7235C236.829 69.7235 237.329 73.7319 237.852 75.6771C238.434 77.8264 239.249 79.6103 240.552 81.4694C246.264 89.6153 256.398 92.13 266.31 92.13C273.965 92.13 280.492 90.4643 285.891 87.1436C291.289 83.8229 293.988 78.8795 293.988 72.3241C293.988 68.7456 292.976 65.5753 290.94 62.8027C288.916 60.0301 286.379 57.7089 283.331 55.839C280.283 53.9691 276.851 52.0669 273.023 50.1541C269.195 48.2412 266.17 46.6614 263.96 45.4256C261.749 44.1897 260.062 43.0184 258.911 41.9115C257.759 40.8046 257.177 39.2678 257.177 37.312C257.177 35.614 257.98 34.1847 259.597 33.0348C261.214 31.885 263.308 31.3046 265.891 31.3046C266.089 31.3046 266.287 31.3046 266.485 31.3154C271.313 31.4551 276.793 32.9704 280.841 35.528C284.634 37.9245 286.752 39.429 289.625 44.3832C290.684 46.2101 291.696 48.4669 291.696 48.4669C291.173 44.6841 290.126 42.524 288.345 39.9341Z" fill="#373C22"/>
<path d="M419.65 31.8527C417.358 30.7566 413.81 30.3697 410.692 32.0139C406.655 34.1417 405.794 38.1394 405.701 41.1807C405.608 44.3939 405.584 55.9142 405.584 58.891C405.584 66.6392 406.678 73.7534 410.238 79.1482C413.298 83.7692 418.196 86.875 425.328 86.875C430.412 86.875 436.206 84.7471 440.208 82.0605C444.734 79.0085 449.167 73.2054 449.167 73.2054C442.977 85.811 431.89 92.1193 415.904 92.1193C405.363 92.1193 396.405 89.2392 389.017 83.4898C381.629 77.7404 377.93 70.1319 377.93 60.6749C377.93 51.132 381.56 43.4697 388.808 37.6773C396.068 31.885 405.096 28.9834 415.904 28.9834C419.965 28.9834 423.711 29.3918 427.131 30.1978C430.552 31.0037 433.763 32.1106 436.765 33.5184C439.766 34.9262 442.628 36.9251 445.362 39.5257C448.085 42.1264 449.458 46.8119 449.458 50.3045C449.458 53.4532 449.458 60.0086 449.458 60.0086C449.458 60.288 438.068 60.1376 436.997 60.0086C433.053 59.525 428.923 58.128 426.154 55.3446C424.781 53.9583 423.757 52.3034 423.083 50.5302C422.861 49.9606 422.687 49.3696 422.571 48.7785C422.105 46.511 422.035 44.1575 422.594 42.3306C422.873 41.4279 423.56 39.1389 423.56 37.6988C423.56 35.3561 421.814 32.8844 419.65 31.8527Z" fill="#373C22"/>
</svg>
