<svg width="470" height="65" viewBox="0 0 470 65" fill="none" xmlns="http://www.w3.org/2000/svg">
<path d="M49.4106 50.3374C47.5945 54.8133 44.6871 58.3113 40.6802 60.8464C36.6733 63.3815 31.9498 64.6453 26.5177 64.6453C18.8868 64.6453 12.6077 62.6895 7.68871 58.7853C2.76971 54.881 0.318359 49.4648 0.318359 42.5516C0.318359 36.1122 2.8593 30.8163 7.93303 26.6714C13.0149 22.5265 19.1066 20.4578 26.2245 20.4578C33.66 20.4578 39.3527 22.3986 43.3026 26.2727C47.2524 30.1468 49.2233 34.8936 49.2233 40.4979L19.4813 40.4979C19.4813 42.6418 19.6604 44.8384 20.0106 47.0726C20.3608 49.3068 21.0368 51.4733 22.0304 53.5571C23.0239 55.6483 24.4328 57.3334 26.2653 58.6122C28.0895 59.8986 30.3536 60.4628 33.1062 60.4628C37.0642 60.4628 41.2421 58.6875 43.6609 56.7391C47.5212 53.6248 49.4106 50.3374 49.4106 50.3374ZM29.7265 31.5385C31.6566 29.1614 31.5915 26.5811 30.6305 24.708C29.6695 22.8274 27.8208 21.8871 25.4508 21.8871C22.6737 21.8871 21.1345 22.9477 20.3364 24.7682C19.5383 26.5887 19.5871 29.7331 19.4813 32.9828C19.3754 36.2251 19.4813 38.7075 19.4813 38.7075C19.4813 38.7075 25.1414 37.1955 29.7265 31.5385Z" fill="#373C22"/>
<path d="M260.618 50.3374C258.801 54.8133 255.894 58.3113 251.887 60.8464C247.88 63.3815 243.157 64.6453 237.725 64.6453C230.094 64.6453 223.815 62.6895 218.896 58.7853C213.977 54.881 211.525 49.4648 211.525 42.5516C211.525 36.1122 214.066 30.8163 219.14 26.6714C224.222 22.5265 230.314 20.4578 237.432 20.4578C244.867 20.4578 250.56 22.3986 254.51 26.2727C258.459 30.1468 260.43 34.8936 260.43 40.4979L230.696 40.4979C230.696 42.6418 230.876 44.8384 231.226 47.0726C231.576 49.3068 232.252 51.4733 233.246 53.5571C234.239 55.6483 235.648 57.3334 237.48 58.6122C239.305 59.8986 241.569 60.4628 244.321 60.4628C248.279 60.4628 252.457 58.6875 254.876 56.7391C258.728 53.6248 260.618 50.3374 260.618 50.3374ZM240.933 31.5385C242.864 29.1614 242.798 26.5811 241.837 24.708C240.876 22.8274 239.028 21.8871 236.658 21.8871C233.881 21.8871 232.342 22.9477 231.543 24.7682C230.745 26.5887 230.794 29.7331 230.688 32.9828C230.582 36.2251 230.688 38.7075 230.688 38.7075C230.688 38.7075 236.348 37.1955 240.933 31.5385Z" fill="#373C22"/>
<path d="M418.091 50.3374C416.275 54.8133 413.368 58.3113 409.361 60.8464C405.354 63.3815 400.63 64.6453 395.198 64.6453C387.567 64.6453 381.288 62.6895 376.369 58.7853C371.45 54.881 368.999 49.4648 368.999 42.5516C368.999 36.1122 371.54 30.8163 376.614 26.6714C381.696 22.5265 387.787 20.4578 394.905 20.4578C402.341 20.4578 408.033 22.3986 411.983 26.2727C415.933 30.1468 417.904 34.8936 417.904 40.4979L388.17 40.4979C388.17 42.6418 388.349 44.8384 388.699 47.0726C389.05 49.3068 389.726 51.4733 390.719 53.5571C391.713 55.6483 393.122 57.3334 394.954 58.6122C396.778 59.8986 399.042 60.4628 401.795 60.4628C405.753 60.4628 409.931 58.6875 412.35 56.7391C416.202 53.6248 418.091 50.3374 418.091 50.3374ZM398.407 31.5385C400.337 29.1614 400.272 26.5811 399.311 24.708C398.35 22.8274 396.501 21.8871 394.132 21.8871C391.354 21.8871 389.815 22.9477 389.017 24.7682C388.219 26.5887 388.268 29.7331 388.162 32.9828C388.056 36.2251 388.162 38.7075 388.162 38.7075C388.162 38.7075 393.822 37.1955 398.407 31.5385Z" fill="#373C22"/>
<path d="M82.8583 22.4663C81.2539 21.699 78.77 21.4282 76.5874 22.5791C73.7614 24.0686 73.1588 26.867 73.0936 28.9959C73.0285 31.2451 73.0122 39.3093 73.0122 41.3931C73.0122 46.8168 73.7777 51.7968 76.2698 55.5731C78.4117 58.8078 81.8403 60.9818 86.8326 60.9818C90.3915 60.9818 94.4473 59.4924 97.2488 57.6117C100.417 55.4753 103.52 51.4131 103.52 51.4131C99.1871 60.2371 91.4258 64.6529 80.2359 64.6529C72.8574 64.6529 66.5865 62.6368 61.4151 58.6122C56.2436 54.5877 53.6538 49.2617 53.6538 42.6418C53.6538 35.9618 56.1947 30.5982 61.2685 26.5435C66.3504 22.4889 72.6701 20.4578 80.2359 20.4578C83.0782 20.4578 85.7006 20.7436 88.0949 21.3078C90.4893 21.872 92.737 22.6468 94.8382 23.6323C96.9393 24.6177 98.9428 26.0169 100.857 27.8374C102.762 29.6579 103.723 32.9377 103.723 35.3825C103.723 37.5867 103.723 42.1754 103.723 42.1754C103.723 42.371 95.7503 42.2657 95.0011 42.1754C92.2402 41.8369 89.3491 40.859 87.4108 38.9106C86.4498 37.9402 85.7332 36.7817 85.2608 35.5405C85.1061 35.1418 84.9839 34.7281 84.9025 34.3143C84.5767 32.7271 84.5278 31.0796 84.9188 29.8008C85.1142 29.1689 85.5947 27.5666 85.5947 26.5586C85.5947 24.9186 84.3731 23.1885 82.8583 22.4663Z" fill="#373C22"/>
<path d="M159.681 42.5516C159.681 48.8705 157.083 54.1363 151.887 58.3414C146.691 62.5465 140.575 64.6453 133.538 64.6453C126.111 64.6453 119.897 62.5465 114.896 58.3414C109.896 54.1363 107.388 48.878 107.388 42.5516C107.388 36.2326 109.92 30.9668 114.986 26.7617C120.052 22.5566 126.233 20.4578 133.53 20.4578C140.697 20.4578 146.846 22.549 151.976 26.7165C157.115 30.8991 159.681 36.1724 159.681 42.5516ZM140.021 32.9828C140.021 29.7632 140.493 27.2582 139.426 25.1669C138.359 23.0831 135.696 21.8871 133.432 21.8871C131.364 21.8871 128.79 23.0154 127.691 25.1895C126.591 27.3635 127.039 29.9362 127.039 32.9828C127.039 34.1187 127.039 51.7065 127.039 52.1278C127.039 55.3474 126.771 57.9728 127.829 60.0566C128.896 62.1478 131.331 63.2236 133.522 63.2236C135.656 63.2236 138.18 62.1478 139.272 60.0039C140.371 57.86 140.005 55.2346 140.005 52.1278C140.021 50.9317 140.021 33.4643 140.021 32.9828Z" fill="#373C22"/>
<path d="M316.739 63.7577C316.739 63.7577 319.907 63.1258 321.878 60.4252C322.334 59.8083 323.246 58.379 323.319 56.6865L323.417 52.5716C323.417 52.5716 323.417 34.5099 323.417 31.1925C323.417 26.9272 322.635 25.5581 321.511 24.189C319.605 21.872 316.73 21.3529 316.73 21.3529L341.912 21.3529V28.868C342.352 27.7923 343.044 26.2201 344.844 24.3018C346.969 22.0375 349.6 20.8188 354.893 20.8188C357.996 20.8188 361.734 21.8193 363.893 23.8128C366.051 25.8138 367.134 28.1834 367.134 30.9217C367.134 33.6674 366.116 35.9467 364.08 37.7672C362.044 39.5877 358.436 40.4979 355.463 40.4979C353.012 40.4979 348.614 40.4979 348.614 40.4979C348.614 40.4979 348.614 38.1885 348.614 36.714C348.614 35.2396 348.679 31.862 348.867 30.5079C349.25 27.7095 351.742 26.5134 351.44 25.3625C351.155 24.2642 349.445 24.0761 349.119 24.0761C347.45 24.0761 345.178 25.4076 343.948 27.2582C342.718 29.1087 342.099 30.8389 342.099 32.4487V53.1132L342.197 56.3856C342.197 58.0556 343.304 60.0716 344.355 61.1549C346.595 63.4643 349.07 63.7577 349.07 63.7577L316.739 63.7577Z" fill="#373C22"/>
<path d="M451.27 36.7141C451.27 38.196 451.27 40.4979 451.27 40.4979C451.27 40.4979 455.668 40.4979 458.119 40.4979C461.092 40.4979 464.781 39.5877 466.817 37.7672C468.853 35.9468 469.871 33.6674 469.871 30.9217C469.871 28.176 468.788 25.8064 466.63 23.8129C464.463 21.8119 460.644 20.8189 457.549 20.8189C455.415 20.8189 452.101 21.2552 449.495 22.4362C446.774 23.6624 444.82 25.6333 444.82 25.6333V0.169434C444.82 0.169434 441.961 7.63182 432.864 15.2371C424.737 22.03 413.49 24.7532 413.49 24.7532L426.129 24.7532V52.3911C426.129 56.2652 427.848 59.2818 431.293 61.4257C434.738 63.5697 438.696 64.6454 443.175 64.6454C450.17 64.6454 454.731 63.3816 456.849 60.8465C458.966 58.3114 460.025 55.3776 460.025 52.0376C460.025 52.0376 459.39 55.6484 457.94 57.9352C456.726 59.846 453.957 61.4332 451.457 61.4332C449.6 61.4332 448.061 60.7788 446.84 59.4623C445.618 58.1534 445.015 56.2126 445.015 53.6474L444.82 49.0887C444.82 49.0887 444.82 35.0065 444.82 31.9598C444.82 29.2818 447.263 25.9267 448.802 25.0691C449.828 24.4974 450.765 24.0686 452.206 24.1363C453.216 24.189 454.112 24.5877 454.218 25.5506C454.324 26.5135 452.044 27.0626 451.522 31.3731C451.351 32.7271 451.27 35.2321 451.27 36.7141Z" fill="#373C22"/>
<path d="M202.16 28.1233C198.65 23.0154 192.069 20.4578 185.676 20.4578C180.448 20.4578 176.026 21.6614 172.41 24.0836C168.794 26.4984 166.986 29.9136 166.986 34.3294C166.986 36.3605 167.45 38.1433 168.387 39.693C169.323 41.2426 170.643 42.6343 172.361 43.853C174.071 45.0791 176.205 46.3279 178.754 47.6067C181.303 48.8931 183.551 50.0515 185.481 51.0972C187.419 52.1428 188.836 53.1132 189.74 54.0009C190.644 54.8961 191.516 55.9643 191.54 58.1007C191.556 59.9964 190.555 61.1323 189.529 61.7491C188.307 62.4788 187.012 62.6594 185.4 62.6594C182.557 62.6594 179.577 62.0877 177.125 61.2451C174.609 60.38 172.524 59.1238 170.683 57.3033C167.059 53.7301 166.098 48.9758 166.098 48.9758C166.098 48.9758 166.448 51.7817 166.815 53.1433C167.222 54.6478 167.792 55.8966 168.704 57.198C172.703 62.9001 179.796 64.6604 186.735 64.6604C192.094 64.6604 196.663 63.4944 200.442 61.1699C204.22 58.8454 206.11 55.3851 206.11 50.7963C206.11 48.2913 205.401 46.0721 203.976 44.1313C202.559 42.1905 200.784 40.5656 198.65 39.2567C196.516 37.9477 194.114 36.6162 191.434 35.2772C188.755 33.9382 186.637 32.8324 185.09 31.9673C183.543 31.1022 182.362 30.2822 181.556 29.5074C180.749 28.7326 180.342 27.6569 180.342 26.2878C180.342 25.0992 180.904 24.0987 182.036 23.2938C183.168 22.4889 184.634 22.0826 186.442 22.0826C186.58 22.0826 186.719 22.0826 186.857 22.0902C190.237 22.188 194.073 23.2486 196.907 25.039C199.562 26.7165 201.044 27.7697 203.056 31.2376C203.797 32.5164 204.505 34.0962 204.505 34.0962C204.139 31.4482 203.406 29.9362 202.16 28.1233Z" fill="#373C22"/>
<path d="M294.074 22.4663C292.469 21.699 289.985 21.4282 287.803 22.5791C284.977 24.0686 284.374 26.867 284.309 28.9959C284.244 31.2451 284.227 39.3093 284.227 41.3931C284.227 46.8168 284.993 51.7968 287.485 55.5731C289.627 58.8078 293.056 60.9818 298.048 60.9818C301.607 60.9818 305.663 59.4924 308.464 57.6117C311.632 55.4753 314.735 51.4131 314.735 51.4131C310.402 60.2371 302.641 64.6529 291.451 64.6529C284.073 64.6529 277.802 62.6368 272.63 58.6122C267.459 54.5877 264.869 49.2617 264.869 42.6418C264.869 35.9618 267.41 30.5982 272.484 26.5435C277.566 22.4889 283.885 20.4578 291.451 20.4578C294.294 20.4578 296.916 20.7436 299.31 21.3078C301.705 21.872 303.952 22.6468 306.054 23.6323C308.155 24.6177 310.158 26.0169 312.072 27.8374C313.978 29.6579 314.939 32.9377 314.939 35.3825C314.939 37.5867 314.939 42.1754 314.939 42.1754C314.939 42.371 306.966 42.2657 306.216 42.1754C303.456 41.8369 300.564 40.859 298.626 38.9106C297.665 37.9402 296.948 36.7817 296.476 35.5405C296.321 35.1418 296.199 34.7281 296.118 34.3143C295.792 32.7271 295.743 31.0796 296.134 29.8008C296.33 29.1689 296.81 27.5666 296.81 26.5586C296.81 24.9186 295.588 23.1885 294.074 22.4663Z" fill="#373C22"/>
</svg>
