<svg width="938" height="176" viewBox="0 0 938 176" fill="none" xmlns="http://www.w3.org/2000/svg">
<path d="M146.44 68.48C146.44 87.68 139.18 103.76 124.66 116.72C110.14 129.68 92.98 136.16 73.18 136.16C52.54 136.16 35.26 129.8 21.34 117.08C7.54 104.24 0.64 88.04 0.64 68.48C0.64 48.32 7.72 32 21.88 19.52C36.04 7.04 53.14 0.799998 73.18 0.799998C93.22 0.799998 110.44 7.16 124.84 19.88C139.24 32.48 146.44 48.68 146.44 68.48ZM91.72 19.34C88.12 9.26 81.94 4.22 73.18 4.22C68.74 4.22 64.9 5.66 61.66 8.54C58.42 11.42 55.9 15.62 54.1 21.14C52.42 26.54 51.16 33.56 50.32 42.2C49.6 50.72 49.24 59.48 49.24 68.48C49.24 80.84 49.72 90.92 50.68 98.72C51.64 106.52 53.44 114.14 56.08 121.58C58.72 129.02 64.42 132.74 73.18 132.74C77.62 132.74 81.46 131.3 84.7 128.42C87.94 125.54 90.4 121.4 92.08 116C93.88 110.48 95.14 103.46 95.86 94.94C96.7 86.3 97.12 77.48 97.12 68.48C97.12 57.8 96.76 48.56 96.04 40.76C95.32 32.84 93.88 25.7 91.72 19.34ZM272.485 134H225.325V122.48C222.565 126.8 219.145 130.1 215.065 132.38C211.105 134.66 205.585 135.8 198.505 135.8C190.225 135.8 182.905 133.34 176.545 128.42C170.065 123.62 166.825 116.96 166.825 108.44V68.48L166.645 61.1C166.645 57.86 166.105 55.64 165.025 54.44C164.065 53.12 161.905 52.28 158.545 51.92L153.505 51.56V48.68H201.385V107.54L201.565 114.92C201.565 119.84 202.405 123.56 204.085 126.08C205.885 128.48 208.525 129.68 212.005 129.68C215.845 129.68 218.605 128.6 220.285 126.44C222.085 124.28 223.525 122.06 224.605 119.78V71.18L224.245 62.9C224.245 58.94 223.585 56.24 222.265 54.8C220.945 53.36 218.305 52.4 214.345 51.92L208.765 51.56V48.68H259.165V114.2L259.345 121.58C259.345 124.82 259.825 127.1 260.785 128.42C261.865 129.62 264.085 130.4 267.445 130.76L272.485 131.12V134ZM273.627 134V131.12L278.487 130.94C281.967 130.58 284.067 129.74 284.787 128.42C285.507 127.1 285.867 124.22 285.867 119.78L286.047 111.5V68.48L285.867 61.1C285.627 58.22 285.267 56.06 284.787 54.62C284.307 53.18 282.147 52.28 278.307 51.92L273.627 51.56V48.68H320.247V63.8C321.087 61.64 322.887 58.4 325.647 54.08C328.407 49.76 334.707 47.6 344.547 47.6C350.307 47.6 355.167 49.64 359.127 53.72C363.207 57.68 365.247 62.42 365.247 67.94C365.247 73.46 363.327 78.08 359.487 81.8C355.767 85.4 351.147 87.2 345.627 87.2C341.067 87.2 337.107 85.64 333.747 82.52C330.507 79.28 328.887 75.62 328.887 71.54C328.887 68.54 329.427 65.78 330.507 63.26C331.707 60.98 332.907 58.64 334.107 56.24C333.507 55.4 332.907 54.98 332.307 54.98C329.187 54.98 326.427 56.84 324.027 60.56C321.747 64.28 320.607 67.76 320.607 71V112.58L320.787 121.58C320.787 124.94 321.207 127.22 322.047 128.42C322.887 129.62 324.987 130.4 328.347 130.76L333.747 131.12V134H273.627ZM530.436 95.48C530.436 107.36 525.396 117.14 515.316 124.82C505.356 132.38 494.496 136.16 482.736 136.16C472.416 136.16 462.216 132.92 452.136 126.44C442.056 119.84 436.236 116.54 434.676 116.54C430.716 116.54 428.256 118.04 427.296 121.04C426.336 124.04 425.436 129.08 424.596 136.16H421.536V71.72H424.596C425.316 74.24 426.516 78.38 428.196 84.14C429.996 89.9 433.236 96.8 437.916 104.84C442.716 112.76 448.956 119.36 456.636 124.64C464.436 129.92 473.436 132.56 483.636 132.56C489.516 132.56 494.316 131 498.036 127.88C501.756 124.76 503.616 121.04 503.616 116.72C503.616 111.56 502.236 107.48 499.476 104.48C496.716 101.48 491.736 98.6 484.536 95.84C477.336 92.96 469.716 89.9 461.676 86.66C453.636 83.42 445.116 79.04 436.116 73.52C427.116 68.12 422.616 57.92 422.616 42.92C422.616 31.16 427.356 21.2 436.836 13.04C446.316 4.88 457.236 0.799998 469.596 0.799998C476.436 0.799998 483.096 2.42 489.576 5.65999L508.296 16.1C511.776 16.1 514.056 14.66 515.136 11.78C516.216 8.77999 516.756 5.11999 516.756 0.799998H520.176V48.5H516.936C516.336 46.46 515.076 42.98 513.156 38.06C511.356 33.14 507.756 27.62 502.356 21.5C497.076 15.38 491.796 11 486.516 8.36C481.356 5.6 475.116 4.22 467.796 4.22C462.876 4.22 458.316 5.66 454.116 8.54C449.916 11.42 447.816 15.02 447.816 19.34C447.816 23.9 449.376 27.74 452.496 30.86C455.736 33.86 459.396 36.26 463.476 38.06C467.676 39.86 473.436 42.14 480.756 44.9C488.076 47.66 495.636 50.9 503.436 54.62C511.356 58.22 517.836 63.56 522.876 70.64C527.916 77.6 530.436 85.88 530.436 95.48ZM549.329 55.52H537.089V50.66C541.169 49.58 545.429 47.6 549.869 44.72C554.309 41.72 558.509 38.3 562.469 34.46C566.549 30.5 569.909 26.66 572.549 22.94C575.309 19.22 577.409 15.86 578.849 12.86H583.889V48.68H607.469L604.949 55.52H583.889V104.48L584.249 113.66C584.249 118.82 585.389 122.72 587.669 125.36C589.949 128 592.829 129.32 596.309 129.32C600.989 129.32 604.409 127.4 606.569 123.56C608.729 119.6 609.809 115.22 609.809 110.42H612.329C612.329 117.14 610.349 123.08 606.389 128.24C602.429 133.28 593.909 135.8 580.829 135.8C572.549 135.8 565.229 133.64 558.869 129.32C552.509 125 549.329 118.94 549.329 111.14V55.52ZM709.947 91.34C709.947 104.06 705.087 114.68 695.367 123.2C685.767 131.6 674.427 135.8 661.347 135.8C647.547 135.8 635.967 131.6 626.607 123.2C617.367 114.68 612.747 104.06 612.747 91.34C612.747 78.62 617.427 68.06 626.787 59.66C636.267 51.14 647.787 46.88 661.347 46.88C674.667 46.88 686.067 51.08 695.547 59.48C705.147 67.88 709.947 78.5 709.947 91.34ZM674.127 91.16C674.127 89.48 674.007 86.12 673.767 81.08C673.527 76.04 673.407 73.04 673.407 72.08C673.407 65.6 672.387 60.26 670.347 56.06C668.427 51.86 665.367 49.76 661.167 49.76C657.327 49.76 654.387 51.98 652.347 56.42C650.307 60.74 649.287 65.96 649.287 72.08C649.287 74.36 649.167 77.18 648.927 80.54C648.807 83.78 648.687 87.32 648.567 91.16C648.567 92.84 648.687 96.32 648.927 101.6C649.167 106.76 649.287 109.76 649.287 110.6C649.287 117.08 650.247 122.42 652.167 126.62C654.207 130.82 657.267 132.92 661.347 132.92C665.307 132.92 668.307 130.76 670.347 126.44C672.387 122.12 673.407 116.84 673.407 110.6C673.407 108.2 673.467 105.38 673.587 102.14C673.707 98.78 673.887 95.12 674.127 91.16ZM713.783 134V131.12L718.643 130.94C722.123 130.58 724.223 129.74 724.943 128.42C725.663 127.1 726.023 124.22 726.023 119.78L726.203 111.5V68.48L726.023 61.1C725.783 58.22 725.423 56.06 724.943 54.62C724.463 53.18 722.303 52.28 718.463 51.92L713.783 51.56V48.68H760.403V63.8C761.243 61.64 763.043 58.4 765.803 54.08C768.563 49.76 774.863 47.6 784.703 47.6C790.463 47.6 795.323 49.64 799.283 53.72C803.363 57.68 805.403 62.42 805.403 67.94C805.403 73.46 803.483 78.08 799.643 81.8C795.923 85.4 791.303 87.2 785.783 87.2C781.223 87.2 777.263 85.64 773.903 82.52C770.663 79.28 769.043 75.62 769.043 71.54C769.043 68.54 769.583 65.78 770.663 63.26C771.863 60.98 773.063 58.64 774.263 56.24C773.663 55.4 773.063 54.98 772.463 54.98C769.343 54.98 766.583 56.84 764.183 60.56C761.903 64.28 760.763 67.76 760.763 71V112.58L760.943 121.58C760.943 124.94 761.363 127.22 762.203 128.42C763.043 129.62 765.143 130.4 768.503 130.76L773.903 131.12V134H713.783ZM815.793 60.92C814.353 57.92 813.153 55.82 812.193 54.62C811.233 53.3 809.973 52.46 808.413 52.1L801.392 51.56V48.68H860.253V51.56H857.553C856.593 51.56 855.333 51.74 853.773 52.1C852.333 52.34 851.613 53.54 851.613 55.7C851.613 56.66 851.853 57.92 852.332 59.48C852.813 60.92 853.293 62.36 853.773 63.8L867.813 97.28C869.013 94.4 870.933 89.72 873.573 83.24C876.213 76.64 878.313 71.06 879.873 66.5C881.433 61.94 882.213 58.64 882.213 56.6C882.213 55.04 881.913 53.96 881.313 53.36C880.833 52.76 879.393 52.28 876.993 51.92L871.233 51.56V48.68H901.293V51.56C900.573 51.56 899.793 51.62 898.953 51.74C898.233 51.74 896.793 51.92 894.633 52.28C892.593 52.64 890.853 53.72 889.413 55.52C887.973 57.32 885.273 63.2 881.313 73.16C877.473 83.12 873.273 93.68 868.713 104.84C864.273 116 859.233 127.58 853.593 139.58C848.073 151.58 842.853 160.58 837.933 166.58C833.133 172.58 826.653 175.58 818.493 175.58C813.693 175.58 809.253 173.96 805.173 170.72C801.212 167.48 799.232 163.28 799.232 158.12C799.232 153.32 800.852 149.24 804.092 145.88C807.333 142.52 811.473 140.84 816.513 140.84C821.673 140.84 825.693 142.34 828.572 145.34C831.453 148.34 832.893 151.88 832.893 155.96C832.893 160.04 831.753 163.34 829.473 165.86C827.193 168.38 826.053 169.88 826.053 170.36C827.133 170.24 828.273 170.12 829.473 170C832.113 168.8 834.633 166.52 837.033 163.16C839.553 159.8 841.773 156.32 843.693 152.72C845.613 149.12 847.653 144.86 849.812 139.94C847.173 133.7 843.873 126.02 839.913 116.9C836.073 107.66 831.753 97.52 826.953 86.48C822.273 75.44 818.553 66.92 815.793 60.92ZM901.82 117.98C901.82 113.18 903.56 109.1 907.04 105.74C910.52 102.38 914.72 100.7 919.64 100.7C924.56 100.7 928.76 102.38 932.24 105.74C935.84 108.98 937.64 113.06 937.64 117.98C937.64 122.9 935.9 127.04 932.42 130.4C928.94 133.76 924.68 135.44 919.64 135.44C914.72 135.44 910.52 133.76 907.04 130.4C903.56 127.04 901.82 122.9 901.82 117.98Z" fill="#676767"/>
</svg>
