<svg width="305" height="65" viewBox="0 0 305 65" fill="none" xmlns="http://www.w3.org/2000/svg">
<path d="M95.3702 50.5356C93.5534 55.0114 90.645 58.5093 86.6368 61.0443C82.6286 63.5793 77.9034 64.8431 72.4695 64.8431C64.8359 64.8431 58.5547 62.8873 53.6341 58.9832C48.7134 55.0791 46.2612 49.6631 46.2612 42.75C46.2612 36.3109 48.803 31.0152 53.8785 26.8704C58.9621 22.7256 65.0559 20.657 72.1762 20.657C79.6142 20.657 85.3089 22.5977 89.2601 26.4717C93.2113 30.3457 95.1828 35.0923 95.1828 40.6964L65.4388 40.6964C65.4388 42.8403 65.618 45.0368 65.9684 47.271C66.3187 49.5051 66.9948 51.6715 67.9887 53.7552C68.9827 55.8464 70.3921 57.5314 72.2251 58.8102C74.05 60.0965 76.3148 60.6607 79.0684 60.6607C83.0277 60.6607 87.2071 58.8854 89.6267 56.9371C93.4801 53.8229 95.3702 50.5356 95.3702 50.5356ZM75.6793 31.7374C77.6101 29.3603 77.545 26.7802 76.5836 24.9071C75.6223 23.0265 73.773 22.0862 71.4023 22.0862C68.6242 22.0862 67.0845 23.1469 66.2861 24.9673C65.4877 26.7877 65.5366 29.932 65.4307 33.1816C65.3248 36.4238 65.4307 38.9061 65.4307 38.9061C65.4307 38.9061 71.0927 37.3941 75.6793 31.7374Z" fill="white"/>
<path d="M252.897 50.5356C251.08 55.0114 248.171 58.5093 244.163 61.0443C240.155 63.5793 235.43 64.8431 229.996 64.8431C222.362 64.8431 216.081 62.8873 211.16 58.9832C206.24 55.0791 203.788 49.6631 203.788 42.75C203.788 36.3109 206.329 31.0152 211.405 26.8704C216.488 22.7256 222.582 20.657 229.703 20.657C237.141 20.657 242.835 22.5977 246.786 26.4717C250.738 30.3457 252.709 35.0923 252.709 40.6964L222.965 40.6964C222.965 42.8403 223.144 45.0368 223.495 47.271C223.845 49.5051 224.521 51.6715 225.515 53.7552C226.509 55.8464 227.918 57.5314 229.751 58.8102C231.576 60.0965 233.841 60.6607 236.595 60.6607C240.554 60.6607 244.733 58.8854 247.153 56.9371C251.007 53.8229 252.897 50.5356 252.897 50.5356ZM233.206 31.7374C235.137 29.3603 235.071 26.7802 234.11 24.9071C233.149 23.0265 231.299 22.0862 228.929 22.0862C226.151 22.0862 224.611 23.1469 223.812 24.9673C223.014 26.7877 223.063 29.932 222.957 33.1816C222.851 36.4238 222.957 38.9061 222.957 38.9061C222.957 38.9061 228.619 37.3941 233.206 31.7374Z" fill="white"/>
<path d="M151.51 63.9557C151.51 63.9557 154.679 63.3238 156.65 60.6233C157.106 60.0065 158.019 58.5773 158.092 56.8847L158.19 52.77C158.19 52.77 158.19 34.7089 158.19 31.3916C158.19 27.1264 157.408 25.7574 156.284 24.3883C154.377 22.0714 151.501 21.5524 151.501 21.5524L176.691 21.5524V29.0672C177.131 27.9915 177.824 26.4193 179.624 24.5011C181.751 22.2369 184.382 21.0183 189.677 21.0183C192.781 21.0183 196.521 22.0188 198.68 24.0122C200.839 26.0131 201.922 28.3827 201.922 31.1208C201.922 33.8664 200.904 36.1457 198.867 37.9661C196.83 39.7865 193.221 40.6967 190.248 40.6967C187.795 40.6967 183.396 40.6967 183.396 40.6967C183.396 40.6967 183.396 38.3874 183.396 36.913C183.396 35.4386 183.461 32.0611 183.649 30.7071C184.032 27.9088 186.525 26.7127 186.223 25.5618C185.938 24.4635 184.227 24.2755 183.901 24.2755C182.231 24.2755 179.958 25.6069 178.728 27.4574C177.498 29.3079 176.879 31.038 176.879 32.6478V53.3116L176.977 56.5838C176.977 58.2538 178.085 60.2698 179.135 61.353C181.376 63.6623 183.852 63.9557 183.852 63.9557L151.51 63.9557Z" fill="white"/>
<path d="M286.086 36.9128C286.086 38.3947 286.086 40.6965 286.086 40.6965C286.086 40.6965 290.486 40.6965 292.938 40.6965C295.912 40.6965 299.602 39.7863 301.639 37.9659C303.675 36.1455 304.694 33.8663 304.694 31.1206C304.694 28.375 303.61 26.0055 301.451 24.012C299.284 22.0111 295.463 21.0182 292.368 21.0182C290.233 21.0182 286.917 21.4545 284.311 22.6355C281.589 23.8616 279.634 25.8324 279.634 25.8324V0.369385C279.634 0.369385 276.775 7.83153 267.675 15.4366C259.544 22.2293 248.293 24.9523 248.293 24.9523L260.937 24.9523V52.5893C260.937 56.4633 262.656 59.4798 266.102 61.6236C269.548 63.7675 273.508 64.8432 277.989 64.8432C284.987 64.8432 289.549 63.5795 291.667 61.0444C293.785 58.5094 294.844 55.5757 294.844 52.2358C294.844 52.2358 294.209 55.8465 292.759 58.1333C291.545 60.044 288.775 61.6312 286.274 61.6312C284.416 61.6312 282.877 60.9767 281.655 59.6603C280.433 58.3514 279.83 56.4107 279.83 53.8456L279.634 49.287C279.634 49.287 279.634 35.2053 279.634 32.1587C279.634 29.4808 282.078 26.1258 283.618 25.2683C284.644 24.6966 285.581 24.2678 287.023 24.3355C288.034 24.3882 288.93 24.7868 289.036 25.7497C289.142 26.7126 286.86 27.2617 286.339 31.572C286.168 32.926 286.086 35.4309 286.086 36.9128Z" fill="white"/>
<path d="M36.8924 28.3222C33.3812 23.2146 26.7985 20.657 20.4033 20.657C15.173 20.657 10.7493 21.8606 7.13213 24.2827C3.51495 26.6974 1.70637 30.1125 1.70637 34.5281C1.70637 36.5592 2.17074 38.342 3.10762 39.8916C4.04451 41.4412 5.36428 42.8328 7.08326 44.0514C8.79408 45.2775 10.9286 46.5262 13.4785 47.805C16.0285 49.0914 18.277 50.2498 20.2078 51.2954C22.1467 52.341 23.5643 53.3114 24.4685 54.199C25.3728 55.0942 26.2445 56.1623 26.269 58.2987C26.2853 60.1943 25.2832 61.3302 24.2567 61.947C23.0347 62.6767 21.7394 62.8572 20.1263 62.8572C17.2831 62.8572 14.3013 62.2855 11.8491 61.443C9.33178 60.5779 7.24619 59.3217 5.40502 57.5013C1.77969 53.9282 0.818359 49.1741 0.818359 49.1741C0.818359 49.1741 1.16868 51.9799 1.53528 53.3415C1.94262 54.8459 2.51291 56.0946 3.42535 57.396C7.42543 63.0979 14.5213 64.8582 21.4624 64.8582C26.823 64.8582 31.3933 63.6922 35.1735 61.3678C38.9536 59.0434 40.8436 55.5831 40.8436 50.9945C40.8436 48.4896 40.1349 46.2705 38.7092 44.3297C37.2916 42.389 35.5156 40.7641 33.3811 39.4553C31.2467 38.1464 28.8434 36.8149 26.1631 35.476C23.4828 34.137 21.3646 33.0312 19.8167 32.1661C18.2688 31.3011 17.0875 30.4811 16.281 29.7063C15.4745 28.9315 15.0671 27.8558 15.0671 26.4868C15.0671 25.2983 15.6293 24.2978 16.7617 23.4929C17.8941 22.688 19.3605 22.2818 21.1691 22.2818C21.3076 22.2818 21.4461 22.2818 21.5846 22.2893C24.9655 22.3871 28.8026 23.4478 31.6377 25.2381C34.2936 26.9156 35.7763 27.9687 37.7886 31.4365C38.5299 32.7153 39.2387 34.295 39.2387 34.295C38.8721 31.6471 38.1389 30.1351 36.8924 28.3222Z" fill="white"/>
<path d="M128.837 22.6654C127.232 21.8982 124.747 21.6274 122.564 22.7783C119.737 24.2677 119.134 27.066 119.069 29.1948C119.004 31.444 118.987 39.5079 118.987 41.5916C118.987 47.0152 119.753 51.995 122.246 55.7712C124.389 59.0058 127.819 61.1797 132.813 61.1797C136.373 61.1797 140.43 59.6903 143.232 57.8097C146.401 55.6734 149.505 51.6113 149.505 51.6113C145.171 60.435 137.407 64.8506 126.214 64.8506C118.833 64.8506 112.56 62.8346 107.386 58.8102C102.213 54.7858 99.6226 49.4599 99.6226 42.8403C99.6226 36.1605 102.164 30.7971 107.24 26.7425C112.323 22.688 118.645 20.657 126.214 20.657C129.057 20.657 131.68 20.9428 134.075 21.507C136.471 22.0712 138.719 22.846 140.821 23.8314C142.923 24.8168 144.927 26.216 146.841 28.0364C148.748 29.8568 149.709 33.1365 149.709 35.5813C149.709 37.7853 149.709 42.3739 149.709 42.3739C149.709 42.5695 141.733 42.4642 140.984 42.3739C138.222 42.0354 135.33 41.0575 133.391 39.1092C132.43 38.1389 131.713 36.9804 131.24 35.7392C131.086 35.3406 130.963 34.9268 130.882 34.5131C130.556 32.9259 130.507 31.2785 130.898 29.9997C131.094 29.3678 131.574 27.7656 131.574 26.7576C131.574 25.1177 130.352 23.3876 128.837 22.6654Z" fill="white"/>
</svg>
