<svg width="161" height="45" viewBox="0 0 161 45" fill="none" xmlns="http://www.w3.org/2000/svg">
<path d="M50.0274 30.3481C48.2107 34.8239 45.3023 38.3218 41.294 40.8568C37.2858 43.3918 32.5607 44.6556 27.1267 44.6556C19.4932 44.6556 13.212 42.6998 8.29132 38.7957C3.37064 34.8916 0.918457 29.4756 0.918457 22.5625C0.918457 16.1234 3.46026 10.8277 8.53572 6.68292C13.6193 2.53812 19.7131 0.469482 26.8334 0.469482C34.2715 0.469482 39.9661 2.41024 43.9173 6.28424C47.8685 10.1582 49.84 14.9048 49.84 20.5089L20.0879 20.5089C20.0879 22.6528 20.2671 24.8493 20.6174 27.0835C20.9677 29.3176 21.6439 31.484 22.6378 33.5677C23.6318 35.6589 25.0411 37.3439 26.8742 38.6227C28.6991 39.909 30.9639 40.4732 33.7175 40.4732C37.6768 40.4732 41.8562 38.6979 44.2758 36.7496C48.1373 33.6354 50.0274 30.3481 50.0274 30.3481ZM30.3366 11.5499C32.2674 9.17281 32.2022 6.59265 31.2409 4.71959C30.2795 2.83901 28.4302 1.89872 26.0595 1.89872C23.2814 1.89872 21.7417 2.95937 20.9433 4.77977C20.1449 6.60017 20.1938 9.7445 20.0879 12.9941C19.982 16.2363 20.0879 18.7186 20.0879 18.7186C20.0879 18.7186 25.7499 17.2066 30.3366 11.5499Z" fill="white"/>
<path d="M83.4859 2.47794C81.881 1.71067 79.3962 1.43986 77.2129 2.59078C74.3859 4.0802 73.7831 6.8785 73.7179 9.00732C73.6527 11.2565 73.6364 19.3204 73.6364 21.4041C73.6364 26.8277 74.4022 31.8075 76.8952 35.5837C79.0378 38.8183 82.4676 40.9922 87.4616 40.9922C91.0217 40.9922 95.0788 39.5028 97.8813 37.6222C101.05 35.4859 104.154 31.4238 104.154 31.4238C99.8203 40.2475 92.0564 44.6631 80.8627 44.6631C73.4817 44.6631 67.2086 42.6471 62.0354 38.6227C56.8622 34.5983 54.2715 29.2724 54.2715 22.6528C54.2715 15.973 56.8133 10.6096 61.8887 6.55504C66.9724 2.50051 73.2943 0.469482 80.8627 0.469482C83.7059 0.469482 86.3292 0.75533 88.7243 1.3195C91.1195 1.88368 93.368 2.65848 95.4699 3.6439C97.5718 4.62933 99.5759 6.02848 101.49 7.84888C103.397 9.66928 104.358 12.949 104.358 15.3938C104.358 17.5978 104.358 22.1864 104.358 22.1864C104.358 22.382 96.3823 22.2767 95.6328 22.1864C92.8711 21.8479 89.9789 20.87 88.04 18.9217C87.0787 17.9514 86.3618 16.7929 85.8892 15.5517C85.7344 15.1531 85.6122 14.7393 85.5308 14.3256C85.2049 12.7384 85.156 11.091 85.5471 9.8122C85.7426 9.18033 86.2233 7.57808 86.2233 6.57009C86.2233 4.93022 85.0012 3.20009 83.4859 2.47794Z" fill="white"/>
<path d="M160.335 22.5625C160.335 28.8813 157.736 34.1469 152.539 38.3519C147.341 42.5569 141.223 44.6556 134.184 44.6556C126.754 44.6556 120.538 42.5569 115.536 38.3519C110.534 34.1469 108.024 28.8888 108.024 22.5625C108.024 16.2438 110.558 10.9782 115.625 6.77319C120.693 2.56821 126.876 0.469482 134.176 0.469482C141.345 0.469482 147.496 2.56069 152.628 6.72805C157.769 10.9105 160.335 16.1836 160.335 22.5625ZM140.669 12.9941C140.669 9.77459 141.141 7.26966 140.074 5.17845C139.007 3.09477 136.343 1.89872 134.078 1.89872C132.009 1.89872 129.434 3.02707 128.334 5.20102C127.235 7.37497 127.683 9.94761 127.683 12.9941C127.683 14.13 127.683 31.7172 127.683 32.1385C127.683 35.358 127.414 37.9833 128.473 40.067C129.54 42.1582 131.976 43.2339 134.168 43.2339C136.302 43.2339 138.827 42.1582 139.919 40.0143C141.019 37.8705 140.652 35.2452 140.652 32.1385C140.669 30.9424 140.669 13.4756 140.669 12.9941Z" fill="white"/>
</svg>
